<?xml version="1.0" encoding="utf-8"?>
<!-- Generator: Adobe Illustrator 23.0.5, SVG Export Plug-In . SVG Version: 6.00 Build 0)  -->
<svg version="1.1" id="Layer_1" xmlns="http://www.w3.org/2000/svg" xmlns:xlink="http://www.w3.org/1999/xlink" x="0px" y="0px"
	 viewBox="0 0 100 100" style="enable-background:new 0 0 100 100;" xml:space="preserve">
<style type="text/css">
	.st0{fill:#CAE0F4;}
	.st1{fill:#ABCBEB;}
	.st2{fill:#799DD2;}
	.st3{fill:#91B1DD;}
	.st4{fill:#DBDFE8;}
	.st5{fill:#C3C6D4;}
	.st6{fill:#625046;}
	.st7{fill:#5E609A;}
	.st8{fill:#4D3F36;}
	.st9{fill:#7B563D;}
	.st10{fill:#6A442A;}
	.st11{fill:#4D4A82;}
	.st12{clip-path:url(#SVGID_1_);}
	.st13{fill:#EFDCC5;}
	.st14{opacity:0.5;fill:#F7EBDF;}
	.st15{fill:#FCFAF3;}
	.st16{fill:#FFFFFF;}
	.st17{fill:#A28CC2;}
	.st18{fill:#758BC6;}
	.st19{fill:#F2708D;}
	.st20{fill:#C9C94F;}
	.st21{fill:#FFCA2F;}
	.st22{fill:#F7EBDF;}
	.st23{fill:#E8AC7A;}
	.st24{fill:#90A2CF;}
	.st25{fill:#EFBB8F;}
	.st26{fill:#0F1118;}
	.st27{fill:#2F3134;}
	.st28{fill:#B1B54E;}
	.st29{fill:#595B89;}
	.st30{fill:#8380A8;}
	.st31{opacity:0.3;fill:#FFFFFF;}
	.st32{fill:#85452B;}
	.st33{fill:#6F3420;}
	.st34{fill:#DCEBF8;}
	.st35{fill:#7FB8E4;}
	.st36{opacity:0.5;}
	.st37{fill:#FAA31A;}
	.st38{fill:#FFD766;}
	.st39{fill:#EE7A2A;}
	.st40{fill:#E37125;}
	.st41{fill:#8B79B7;}
	.st42{opacity:0.5;fill:#F5F1E2;}
	.st43{fill:#F5F1E2;}
	.st44{fill:#2A3B51;}
	.st45{fill:#D7A276;}
	.st46{fill:#8C6E5D;}
	.st47{fill:#816351;}
	.st48{opacity:0.4;fill:url(#SVGID_2_);}
	.st49{opacity:0.4;fill:url(#SVGID_3_);}
	.st50{fill:#CD4E37;}
	.st51{fill:#B83F2D;}
	.st52{fill:#6F72B5;}
</style>
<g>
	<g>
		<path class="st0" d="M40.98,32.33c0.63-5.04,1.64-14.28-1.15-17.2C36.98,12.16,20.67,14,20,19.88
			c-0.68,5.87,3.48,12.55,5.45,14.84L40.98,32.33z"/>
		<path class="st1" d="M40.98,32.37c0.66-4.81,1.72-13.73-1.06-16.49c-2.82-2.81-19.12-0.91-19.83,4.7
			c-0.71,5.61,3.4,11.97,5.35,14.14L40.98,32.37z"/>
		<path class="st2" d="M40.05,32.55c0.56-4.51,1.49-13-1.01-15.62c-2.55-2.66-17.14-0.92-17.74,4.34
			c-0.61,5.26,3.25,11.27,5.01,13.32L40.05,32.55z"/>
		<path class="st3" d="M39.85,32.59c0.54-4.47,1.44-12.89-1.01-15.48c-2.49-2.64-16.72-0.92-17.3,4.29
			c-0.58,5.21,3.22,11.15,4.94,13.18L39.85,32.59z"/>
	</g>
	<path class="st2" d="M23.9,29.65c0.17-1.56,2.07-1.99,7.18-2.65s8.68-1.65,8.92,2.78c0.24,4.42-14.84,1.99-14.84,1.99L23.9,29.65z"
		/>
	<g>
		<path class="st0" d="M64.76,33.2c1.61-4.82,4.43-13.68,2.26-17.09c-2.2-3.47-18.55-4.88-20.37,0.75
			c-1.82,5.62,0.94,12.99,2.42,15.62L64.76,33.2z"/>
		<path class="st1" d="M64.75,33.24c1.6-4.59,4.39-13.12,2.22-16.38c-2.21-3.31-18.56-4.66-20.37,0.69
			c-1.81,5.36,0.98,12.41,2.46,14.92L64.75,33.24z"/>
		<path class="st2" d="M63.8,33.23c1.44-4.32,4.03-12.45,2.09-15.51c-1.97-3.11-16.62-4.28-18.25,0.76
			c-1.63,5.04,0.96,11.69,2.28,14.05L63.8,33.23z"/>
		<path class="st3" d="M63.6,33.23c1.41-4.27,3.95-12.35,2.06-15.38c-1.92-3.08-16.21-4.2-17.8,0.79c-1.6,4.99,0.96,11.57,2.24,13.9
			L63.6,33.23z"/>
	</g>
	<path class="st4" d="M50.71,22.78c-0.4,0.9-1.16,10.04-1.16,10.04l4.77,0.48c0,0,1.61-3.97,1.92-4.01c0.31-0.04,0.92-0.11,1.2,0.37
		c0.28,0.47,1.54,3.64,1.54,3.64l4.3,0.42c0,0,0.94-5.55,0.92-8.14c-0.02-2.59-2.04-4.83-5.12-5.29
		C55.99,19.83,52.2,19.4,50.71,22.78z"/>
	<path class="st5" d="M58.28,28.43c-0.37-0.47-1.87-0.24-2.65,0c-0.75,0.23-2.49,4.01-2.73,4.74l1.4,0.14c0,0,1.61-3.97,1.92-4.01
		c0.31-0.04,0.92-0.11,1.2,0.37c0.28,0.47,1.54,3.64,1.54,3.64l1.53,0.15C59.92,32.03,58.57,28.8,58.28,28.43z"/>
	<g>
		<path class="st0" d="M60.14,67.65c-1.23,4.93-3.35,13.98-0.92,17.22c2.47,3.29,18.87,3.41,20.25-2.34
			c1.38-5.75-1.95-12.88-3.63-15.39L60.14,67.65z"/>
		<path class="st1" d="M60.14,67.61c-1.23,4.7-3.36,13.42-0.93,16.5c2.46,3.13,18.87,3.2,20.25-2.28
			c1.38-5.48-1.94-12.29-3.62-14.68L60.14,67.61z"/>
		<path class="st2" d="M61.09,67.54c-1.1,4.41-3.04,12.73-0.87,15.63c2.21,2.94,16.9,2.97,18.14-2.18
			c1.23-5.15-1.87-11.58-3.37-13.83L61.09,67.54z"/>
		<path class="st3" d="M61.29,67.53c-1.07,4.37-2.98,12.62-0.86,15.49c2.16,2.92,16.48,2.92,17.69-2.18
			c1.2-5.1-1.85-11.46-3.32-13.68L61.29,67.53z"/>
	</g>
	<g>
		<path class="st0" d="M80.25,54.46c5.13,1.22,14.56,3.31,17.89,0.75c3.39-2.6,3.32-19.64-2.67-21.01
			c-5.99-1.36-13.35,2.18-15.94,3.95L80.25,54.46z"/>
		<path class="st1" d="M80.2,54.46c4.89,1.22,13.98,3.32,17.15,0.77c3.22-2.6,3.09-19.64-2.61-21.01
			c-5.71-1.37-12.74,2.16-15.21,3.93L80.2,54.46z"/>
		<path class="st2" d="M80.12,53.47c4.6,1.09,13.26,3.01,16.24,0.72c3.03-2.33,2.88-17.59-2.48-18.81c-5.36-1.22-12,2.08-14.32,3.67
			L80.12,53.47z"/>
		<path class="st3" d="M80.11,53.27c4.55,1.06,13.15,2.94,16.1,0.7c3-2.27,2.83-17.15-2.48-18.34c-5.31-1.19-11.87,2.07-14.17,3.61
			L80.11,53.27z"/>
	</g>
	<path class="st6" d="M63.7,77.87c-1.94-1.07-0.51-9.51-0.51-9.51l7.82-0.81c0,0,3.98,5.94,2.6,8.53
		C72.22,78.68,63.7,77.87,63.7,77.87z"/>
	<polygon class="st7" points="89.61,51.12 81.55,50.39 81.28,38.78 89.96,38.97 	"/>
	<path class="st8" d="M73.8,75.58c0.73-2.79-2.79-8.03-2.79-8.03l-7.82,0.81c0,0-0.04,0.25-0.1,0.66l7.8-0.11
		c0,0,2.09,4.87,1.87,6.02C72.63,75.59,73.25,75.66,73.8,75.58z"/>
	<g>
		<path class="st0" d="M18.62,41.29c-5-0.92-14.16-2.47-17.24,0.15c-3.13,2.67-2.24,19.05,3.59,20.07
			c5.82,1.02,12.73-2.75,15.13-4.58L18.62,41.29z"/>
		<path class="st1" d="M18.66,41.29c-4.77-0.94-13.6-2.52-16.53,0.09c-2.97,2.65-2.02,19.03,3.54,20.07
			c5.56,1.04,12.15-2.7,14.43-4.52L18.66,41.29z"/>
		<path class="st2" d="M18.79,42.23c-4.47-0.82-12.9-2.25-15.65,0.1c-2.8,2.39-1.91,17.05,3.3,17.97
			c5.22,0.91,11.44-2.58,13.59-4.22L18.79,42.23z"/>
		<path class="st3" d="M18.81,42.43c-4.43-0.8-12.78-2.19-15.51,0.11c-2.78,2.33-1.89,16.63,3.27,17.52
			c5.16,0.88,11.32-2.56,13.45-4.17L18.81,42.43z"/>
	</g>
	<g>
		<path class="st0" d="M32.21,67.66c-1.23,4.93-3.35,13.98-0.92,17.22c2.47,3.29,18.88,3.41,20.25-2.34
			c1.38-5.75-1.95-12.88-3.63-15.39L32.21,67.66z"/>
		<path class="st1" d="M32.21,67.62c-1.23,4.7-3.36,13.42-0.93,16.5c2.46,3.13,18.87,3.2,20.25-2.28
			c1.38-5.48-1.94-12.29-3.62-14.68L32.21,67.62z"/>
		<path class="st2" d="M33.16,67.55c-1.1,4.41-3.04,12.73-0.87,15.63c2.21,2.94,16.9,2.97,18.14-2.18
			c1.23-5.15-1.87-11.58-3.37-13.83L33.16,67.55z"/>
		<path class="st3" d="M33.36,67.54c-1.07,4.37-2.98,12.62-0.86,15.49c2.16,2.92,16.48,2.92,17.69-2.18
			c1.2-5.1-1.85-11.46-3.32-13.68L33.36,67.54z"/>
	</g>
	<path class="st9" d="M47.03,76.94c0.33-0.93,0.38-10.1,0.38-10.1l-4.79-0.11c0,0-1.3,4.09-1.6,4.14c-0.3,0.06-0.91,0.18-1.23-0.27
		c-0.32-0.45-1.82-3.51-1.82-3.51l-4.32-0.08c0,0-0.51,5.6-0.28,8.19c0.22,2.59,2.41,4.66,5.52,4.88
		C41.98,80.3,45.8,80.43,47.03,76.94z"/>
	<path class="st10" d="M41.01,70.88c-0.3,0.06-0.91,0.18-1.23-0.27c-0.22-0.31-1-1.86-1.47-2.79l-1.73,0.05
		c0.84,2.26,2.26,4.06,3.1,4.34c0.84,0.28,2.01-0.02,2.29-0.33c0.28-0.31,1.82-4.22,1.82-4.22l-1.5,0.04
		C41.89,68.91,41.22,70.84,41.01,70.88z"/>
	<path class="st11" d="M11.51,56.05c2.33,1.24,5.28,0.33,7.57-1.31l-0.96-11.05c0,0-5.45-1.87-8.16-0.1
		C7.24,45.35,11.51,56.05,11.51,56.05z"/>
	<g>
		<g>
			<defs>
				<polygon id="SVGID_5_" points="15.9,28.27 20.53,70.34 80.4,67.72 85.72,31.51 				"/>
			</defs>
			<use xlink:href="#SVGID_5_"  style="overflow:visible;fill:#F8F3E0;"/>
			<clipPath id="SVGID_1_">
				<use xlink:href="#SVGID_5_"  style="overflow:visible;"/>
			</clipPath>
			<g class="st12">
				<g>
					<path class="st13" d="M79.45,35.72c-5.58,0-12.27-1.03-19.23-2.1c-3.71-0.57-7.54-1.16-11.27-1.6
						c-6.43-0.76-12.5-0.1-17.86,0.48c-6.51,0.71-11.66,1.26-14.91-0.94l0.13-0.19c3.18,2.15,8.29,1.6,14.76,0.9
						c5.37-0.58,11.46-1.24,17.91-0.48c3.74,0.44,7.57,1.03,11.28,1.6c10.44,1.61,20.31,3.13,26.62,1.19l0.07,0.22
						C84.81,35.45,82.28,35.72,79.45,35.72z"/>
				</g>
				<g>
					<path class="st13" d="M19.89,38.88c-3.02,0-5.02-0.55-5.06-0.56l0.06-0.22c0.07,0.02,7.39,2.02,15.18-1.73
						c5.41-2.61,9.77-3.47,12.48-3.73c0.72-0.07,1.36-0.1,1.92-0.11c-4.25-0.3-8.59,0.86-12.82,1.97
						c-5.77,1.53-11.23,2.97-15.8,0.58l0.11-0.2c4.5,2.36,9.91,0.92,15.64-0.59c5.15-1.36,10.47-2.77,15.59-1.58l-0.05,0.23
						c-0.07-0.01-6.68-1.29-16.97,3.66C26.38,38.41,22.7,38.88,19.89,38.88z"/>
				</g>
				<g>
					<path class="st13" d="M18.22,41.58c-0.56,0-1.06-0.05-1.48-0.17l0.06-0.22c3.92,1.07,14.63-3.45,16.74-4.37
						c11.13-4.84,15.2-4.05,26.07-1.93l0.43,0.08c4.37,0.85,8.09,1.97,11.37,2.95c5.14,1.54,9.58,2.86,14.29,2.5l0.02,0.23
						c-4.76,0.36-9.22-0.97-14.38-2.51c-3.28-0.98-6.99-2.09-11.35-2.94l-0.43-0.08c-10.82-2.11-14.87-2.9-25.94,1.91
						C31.74,37.86,22.93,41.58,18.22,41.58z"/>
				</g>
				<g>
					<path class="st13" d="M81.23,34.18c-6.62,0-14.09-1.43-20.88-2.74c-7.29-1.4-13.59-2.61-17.3-1.8
						c-8.74,1.91-19.92,1.39-27.18-1.26l0.08-0.22c7.22,2.64,18.35,3.15,27.06,1.25c3.75-0.82,10.07,0.39,17.39,1.8
						c9.05,1.74,19.3,3.71,27.1,2.2l0.04,0.23C85.57,34.02,83.45,34.18,81.23,34.18z"/>
				</g>
				<g>
					<path class="st13" d="M19.95,44.82c-1.39,0-2.5-0.18-3.24-0.57l0.11-0.2c2.4,1.26,10.21,0.39,19.95-3.71
						c1.59-0.67,3.01-1.32,4.38-1.94c6.39-2.92,10.61-4.85,18.12-1.96c4.03,1.56,7.86,2.1,10.93,2.54c3.87,0.55,6.67,0.96,7.57,2.97
						c0.24,0.53,0.19,0.96-0.13,1.28c-1.38,1.36-7.38,0.19-9.86-0.98c-0.85-0.4-1.27-0.79-1.24-1.15c0.09-1.06,2.97-1.21,4.88-1.06
						c1.98,0.16,4.27,0.73,4.19,1.79c-0.04,0.57-0.51,0.95-1.35,1.1c-1.65,0.3-4.62-0.38-5.1-1.41c-0.12-0.27-0.12-0.47,0.01-0.6
						c0.43-0.45,2.23,0.29,2.59,0.44l-0.09,0.21c-0.83-0.35-2.09-0.74-2.33-0.5c-0.07,0.07-0.02,0.22,0.04,0.34
						c0.4,0.86,3.17,1.59,4.85,1.28c0.51-0.09,1.12-0.32,1.16-0.89c0.05-0.72-1.58-1.35-3.98-1.55c-2.49-0.2-4.57,0.18-4.63,0.85
						c-0.01,0.11,0.08,0.44,1.11,0.92c1.28,0.6,3.36,1.16,5.31,1.41c2.18,0.29,3.75,0.15,4.29-0.39c0.25-0.25,0.28-0.58,0.09-1.02
						c-0.85-1.89-3.6-2.29-7.39-2.83c-3.09-0.44-6.93-0.99-10.98-2.56c-7.42-2.86-11.6-0.95-17.94,1.95
						c-1.37,0.63-2.79,1.28-4.38,1.95C30.45,43.24,24.01,44.82,19.95,44.82z"/>
				</g>
				<g>
					<path class="st13" d="M23.71,49.19c-2.62,0-5.23-0.69-7.87-2.43l0.13-0.19c7.21,4.76,14.24,1.5,21.68-1.95
						c1.74-0.8,3.53-1.64,5.33-2.36c8.31-3.36,14.9-1.31,21.88,0.86c0.97,0.3,1.98,0.61,2.98,0.91c6.72,1.98,12.16-0.1,15.4-1.35
						c0.64-0.24,1.19-0.46,1.63-0.59l0.07,0.22c-0.44,0.13-0.98,0.34-1.62,0.58c-3.28,1.25-8.76,3.36-15.55,1.35
						c-1.01-0.3-2.01-0.61-2.99-0.91c-6.94-2.16-13.49-4.2-21.72-0.87c-1.8,0.73-3.59,1.56-5.32,2.36
						C32.95,47.05,28.33,49.19,23.71,49.19z"/>
				</g>
				<g>
					<path class="st13" d="M16.68,51.13c0,0,0.19,0.05,0.54,0.14c0.17,0.05,0.39,0.1,0.64,0.13c0.25,0.04,0.54,0.09,0.88,0.1
						c0.66,0.05,1.48,0.01,2.4-0.14c0.92-0.14,1.95-0.4,3.09-0.61c0.58-0.09,1.18-0.18,1.83-0.14c0.64,0.05,1.3,0.28,1.85,0.7
						c0.27,0.22,0.52,0.54,0.57,0.93c0.05,0.39-0.1,0.77-0.31,1.06c-0.43,0.6-1.06,1.01-1.71,1.35c-1.31,0.66-2.83,1-4.37,0.96
						c-0.39-0.01-0.77-0.06-1.15-0.13c-0.38-0.07-0.76-0.17-1.13-0.36c-0.18-0.09-0.36-0.23-0.48-0.43c-0.13-0.2-0.1-0.47-0.02-0.67
						c0.17-0.41,0.49-0.67,0.8-0.91c0.63-0.48,1.34-0.82,2.06-1.11c0.72-0.28,1.47-0.5,2.24-0.6c0.38-0.05,0.77-0.07,1.16-0.03
						c0.2,0.02,0.39,0.07,0.58,0.14c0.16,0.07,0.36,0.17,0.51,0.31c0.15,0.14,0.28,0.34,0.3,0.56c0.03,0.22-0.04,0.43-0.14,0.6
						c-0.2,0.35-0.49,0.61-0.78,0.83c-0.61,0.43-1.29,0.71-1.97,0.88c-0.69,0.17-1.4,0.22-2.07,0.11c-0.17-0.04-0.35-0.08-0.51-0.2
						c-0.17-0.11-0.25-0.36-0.2-0.55c0.1-0.37,0.34-0.61,0.57-0.84c0.47-0.44,0.99-0.77,1.52-1.03c0.27-0.13,0.54-0.24,0.81-0.31
						c0.28-0.07,0.57-0.13,0.88,0c0.15,0.07,0.26,0.25,0.29,0.37c0.05,0.16,0.03,0.32-0.03,0.46c-0.13,0.27-0.34,0.43-0.54,0.57
						c-0.41,0.27-0.83,0.43-1.23,0.54c-0.2,0.06-0.39,0.1-0.59,0.13c-0.1,0.01-0.19,0.03-0.31,0.01c-0.01,0-0.04-0.01-0.06-0.02
						c-0.01-0.01-0.02-0.01-0.03-0.02c-0.02-0.02-0.03-0.04-0.04-0.06c-0.02-0.05-0.01-0.08,0-0.12c0.02-0.04,0.02-0.03,0.02-0.04
						c0.02-0.03,0.05-0.08,0.09-0.11c0.49-0.52,0.97-0.76,1.3-0.92c0.34-0.15,0.54-0.14,0.54-0.14l0,0c0,0-0.19,0.04-0.49,0.23
						c-0.15,0.09-0.34,0.21-0.54,0.38c-0.2,0.16-0.44,0.35-0.64,0.59c-0.02,0.03-0.04,0.05-0.06,0.09c0,0-0.02,0.03-0.01,0.01
						c0.01-0.02,0-0.03,0-0.06c0-0.01-0.01-0.03-0.03-0.03c0,0,0-0.01,0-0.01c0,0-0.01,0,0,0c0.05,0.01,0.15,0,0.23-0.01
						c0.18-0.03,0.36-0.07,0.55-0.13c0.38-0.11,0.79-0.27,1.17-0.52c0.18-0.12,0.36-0.28,0.45-0.47c0.04-0.09,0.05-0.2,0.02-0.29
						c-0.04-0.12-0.08-0.18-0.17-0.23c-0.19-0.08-0.46-0.05-0.71,0.02c-0.26,0.07-0.51,0.17-0.77,0.29
						c-0.51,0.25-1.01,0.57-1.46,0.98c-0.21,0.2-0.43,0.45-0.49,0.71c-0.08,0.26,0.21,0.41,0.51,0.46c0.64,0.11,1.31,0.05,1.97-0.11
						c0.66-0.17,1.32-0.44,1.89-0.85c0.28-0.2,0.55-0.45,0.71-0.74c0.18-0.29,0.15-0.64-0.11-0.85c-0.54-0.46-1.32-0.44-2.05-0.35
						c-0.74,0.11-1.47,0.32-2.17,0.59c-0.7,0.28-1.4,0.62-2,1.07c-0.29,0.23-0.58,0.49-0.71,0.8c-0.06,0.15-0.08,0.31,0.01,0.44
						c0.08,0.13,0.21,0.25,0.37,0.32c0.31,0.16,0.68,0.27,1.05,0.33c0.37,0.07,0.74,0.11,1.11,0.12c1.49,0.04,2.97-0.3,4.24-0.93
						c0.62-0.33,1.22-0.72,1.6-1.26c0.19-0.27,0.3-0.57,0.26-0.87c-0.04-0.3-0.23-0.55-0.46-0.74c-0.5-0.38-1.1-0.6-1.7-0.65
						c-0.6-0.04-1.2,0.04-1.76,0.12c-1.13,0.21-2.16,0.47-3.1,0.6c-0.93,0.14-1.77,0.19-2.45,0.13c-0.34-0.01-0.64-0.06-0.91-0.11
						c-0.27-0.03-0.48-0.09-0.66-0.14c-0.35-0.09-0.53-0.14-0.53-0.14L16.68,51.13z"/>
				</g>
				<g>
					<path class="st13" d="M23.39,58.26c-1.8,0-3.66-0.49-5.85-1.71l0.11-0.2c5.08,2.82,8.37,1.66,13.31-0.45
						c5.17-2.21,34.92-10.5,42.53-8.8c4.35,0.97,7-0.09,9.12-0.95c1.62-0.65,2.89-1.16,4.34-0.54l-0.09,0.21
						c-1.36-0.58-2.6-0.09-4.16,0.54c-2.15,0.87-4.83,1.94-9.26,0.96c-7.57-1.69-37.23,6.58-42.39,8.79
						C28.17,57.35,25.84,58.26,23.39,58.26z"/>
				</g>
				<g>
					<path class="st13" d="M80.4,50.86c-3.76,0-6.57-1.66-6.6-1.69l-0.67-0.4l0.75,0.19c4.69,1.19,6.94,0.02,10.33-1.75l0.64-0.33
						l0.11,0.21l-0.64,0.33c-3.21,1.67-5.4,2.82-9.56,1.98c1.57,0.71,5.15,1.93,9.11,0.71l0.07,0.22
						C82.71,50.71,81.51,50.86,80.4,50.86z"/>
				</g>
				<g>
					<path class="st13" d="M18.78,62.52l-0.22-0.06c0.78-2.7,4.32-3.16,9.22-3.79c1.93-0.25,4.11-0.53,6.42-0.99l1.88-0.37
						c8.74-1.75,23.37-4.67,32.07-5.75c4.71-0.58,7.11,0.08,9.24,0.66c2.08,0.57,3.73,1.02,6.88,0.04l0.07,0.22
						c-3.22,1.01-4.98,0.52-7.01-0.04c-2.1-0.58-4.48-1.23-9.15-0.65c-8.69,1.08-23.32,4-32.06,5.75l-1.88,0.37
						c-2.31,0.46-4.5,0.74-6.43,1C22.99,59.51,19.52,59.96,18.78,62.52z"/>
				</g>
				<g>
					<path class="st13" d="M18.73,63.84l-0.13-0.19c0.34-0.22,0.69-0.49,1.06-0.77c1.68-1.28,3.97-3.05,8.69-2.72
						c1.97,0.13,7.22-1.13,13.3-2.58c11.38-2.73,26.97-6.47,32.84-3.9c6.94,3.04,8.09,2.81,10.37,1.71l0.1,0.21
						c-2.36,1.14-3.53,1.38-10.56-1.7c-5.8-2.54-21.34,1.19-32.69,3.91c-6.35,1.52-11.36,2.72-13.37,2.59
						c-4.63-0.31-6.79,1.34-8.53,2.68C19.43,63.34,19.08,63.61,18.73,63.84z"/>
				</g>
				<g>
					<path class="st13" d="M60.91,65.65c-3.03,0-6.71-0.88-10.75-1.84c-4.04-0.96-8.63-2.06-13.36-2.47
						c-7.1-0.62-10.03,1.05-12.39,2.39c-1.72,0.98-3.2,1.82-5.76,1.57l0.02-0.23c2.49,0.24,3.95-0.59,5.63-1.54
						c2.38-1.36,5.35-3.04,12.52-2.42c4.75,0.41,9.35,1.51,13.4,2.47c6.31,1.5,11.75,2.8,15.08,0.84c9.21-5.42,15.07-2.25,17-1.21
						l-0.11,0.2c-1.9-1.03-7.68-4.14-16.77,1.21C64.18,65.36,62.65,65.65,60.91,65.65z"/>
				</g>
				<g>
					<path class="st13" d="M84.19,61.21c-0.68,0-4.4-0.12-7.98-2.63c-3.13-2.19-5.86-2.62-7.61-2.6c-1.08,0.01-1.93,0.2-2.46,0.36
						c-0.2,0.07-0.41,0.15-0.62,0.22l-0.09-0.21c0.01,0,0.2-0.1,0.56-0.2c4.83-1.7,7.04-0.8,9.82,0.33
						c2.04,0.83,4.35,1.77,8.24,1.89l-0.01,0.23c-3.93-0.12-6.26-1.07-8.32-1.91c-2.33-0.95-4.25-1.73-7.7-0.91
						c1.98-0.14,4.95,0.24,8.33,2.61c3.88,2.72,7.91,2.59,7.95,2.59l0.01,0.23C84.3,61.21,84.26,61.21,84.19,61.21z"/>
				</g>
				<g>
					<path class="st13" d="M19.52,67.89c-0.29,0-0.58-0.02-0.87-0.08l0.04-0.23c1.79,0.33,3.68-0.49,5.87-1.44
						c3-1.3,6.41-2.77,10.89-2.04c1.59,0.26,3.41,0.59,5.34,0.95c7.62,1.42,17.11,3.18,22.84,1.95l0.53-0.11
						c6.89-1.48,11.05-2.37,17.59,0.78l-0.1,0.21c-6.47-3.11-10.6-2.23-17.44-0.76l-0.53,0.11c-5.77,1.24-15.28-0.53-22.93-1.95
						c-1.93-0.36-3.75-0.7-5.33-0.95c-4.41-0.71-7.78,0.74-10.76,2.03C22.77,67.18,21.11,67.89,19.52,67.89z"/>
				</g>
				<g>
					<path class="st13" d="M17.59,70.23c0,0,0.19-0.02,0.54-0.05c0.17-0.03,0.37-0.09,0.61-0.14c0.24-0.07,0.52-0.17,0.82-0.27
						c0.61-0.23,1.34-0.54,2.18-0.91c0.84-0.36,1.79-0.78,2.84-1.19c1.05-0.42,2.21-0.8,3.46-1.15c1.25-0.33,2.61-0.57,4.02-0.71
						c1.41-0.1,2.89-0.09,4.36,0.07c0.74,0.08,1.48,0.17,2.22,0.33c0.37,0.07,0.74,0.17,1.1,0.3c0.18,0.06,0.36,0.14,0.54,0.24
						c0.17,0.1,0.36,0.22,0.45,0.47c0.02,0.06,0.03,0.13,0.01,0.2c-0.01,0.07-0.04,0.13-0.07,0.17c-0.06,0.11-0.15,0.17-0.23,0.23
						c-0.17,0.12-0.35,0.2-0.53,0.27c-0.36,0.14-0.73,0.23-1.1,0.31c-0.74,0.15-1.49,0.24-2.23,0.29c-1.48,0.11-2.94,0.12-4.35,0.09
						c-0.71-0.02-1.4-0.05-2.08-0.11c-0.34-0.03-0.68-0.07-1.01-0.13c-0.17-0.03-0.33-0.07-0.5-0.12c-0.08-0.03-0.16-0.06-0.25-0.11
						c-0.07-0.05-0.2-0.13-0.19-0.31c0.04-0.15,0.13-0.21,0.2-0.26c0.08-0.05,0.15-0.09,0.23-0.13c0.15-0.07,0.3-0.13,0.46-0.18
						c0.3-0.1,0.61-0.17,0.91-0.24c0.6-0.13,1.18-0.22,1.74-0.29c1.12-0.13,2.17-0.2,3.1-0.06c0.45,0.09,0.87,0.19,1.26,0.35
						c0.09,0.05,0.19,0.08,0.28,0.21c0.06,0.07,0.02,0.21-0.04,0.25c-0.05,0.04-0.1,0.07-0.15,0.08c-0.19,0.07-0.36,0.09-0.53,0.11
						c-0.66,0.06-1.18,0.03-1.53,0.01c-0.35-0.02-0.54-0.05-0.54-0.05l0-0.01c0,0,0.19,0,0.54-0.01c0.35-0.01,0.87-0.02,1.51-0.11
						c0.16-0.03,0.33-0.06,0.48-0.12c0.04-0.01,0.07-0.03,0.09-0.05c0.01-0.02,0,0.01,0,0c-0.02-0.03-0.11-0.08-0.19-0.12
						c-0.35-0.14-0.77-0.23-1.21-0.32c-0.88-0.13-1.92-0.07-3.03,0.06c-0.56,0.07-1.13,0.16-1.72,0.29
						c-0.29,0.07-0.59,0.14-0.88,0.24c-0.15,0.05-0.29,0.1-0.43,0.16c-0.13,0.05-0.29,0.17-0.29,0.21
						c-0.01-0.01,0.01,0.03,0.07,0.07c0.05,0.03,0.13,0.06,0.2,0.09c0.15,0.05,0.3,0.08,0.46,0.11c0.32,0.06,0.65,0.1,0.99,0.13
						c0.67,0.06,1.36,0.09,2.06,0.11c1.4,0.04,2.86,0.02,4.32-0.09c0.73-0.06,1.47-0.15,2.19-0.29c0.36-0.07,0.72-0.17,1.06-0.3
						c0.17-0.06,0.33-0.14,0.47-0.24c0.14-0.1,0.23-0.22,0.19-0.32c-0.04-0.11-0.18-0.23-0.33-0.31c-0.15-0.09-0.32-0.16-0.49-0.22
						c-0.35-0.12-0.7-0.21-1.07-0.29c-0.72-0.15-1.46-0.24-2.19-0.32c-1.47-0.16-2.91-0.16-4.31-0.06
						c-1.39,0.14-2.73,0.38-3.97,0.71c-1.24,0.34-2.4,0.71-3.44,1.13c-1.05,0.4-1.99,0.81-2.84,1.17c-0.84,0.36-1.58,0.67-2.2,0.9
						c-0.32,0.1-0.59,0.2-0.84,0.27c-0.26,0.06-0.48,0.12-0.65,0.15c-0.35,0.03-0.54,0.05-0.54,0.05L17.59,70.23z"/>
				</g>
				<g>
					<path class="st13" d="M61.89,63.51c-0.59,0-1.22-0.02-1.88-0.07c-3.04-0.24-5.35-1.21-7.38-2.07
						c-2.48-1.05-4.63-1.95-7.57-1.49l-0.04-0.23c3.01-0.47,5.29,0.49,7.7,1.51c2.11,0.89,4.3,1.82,7.3,2.05
						c5.5,0.43,8.42-1.03,10.55-2.09c0.4-0.2,0.77-0.39,1.12-0.54c2.06-0.89,6.91-1.01,11.83,2.31l-0.13,0.19
						c-4.85-3.27-9.6-3.16-11.61-2.29c-0.34,0.15-0.71,0.33-1.11,0.53C68.89,62.21,66.29,63.51,61.89,63.51z"/>
				</g>
			</g>
		</g>
		<polygon class="st14" points="20.06,66.46 77.86,66.46 84.45,31.45 85.72,31.51 80.4,67.72 20.53,70.34 		"/>
		
			<rect x="26.7" y="33.8" transform="matrix(0.9959 -0.0909 0.0909 0.9959 -4.1235 4.6536)" class="st15" width="44.71" height="27.63"/>
		
			<rect x="27.16" y="33.76" transform="matrix(0.9992 -0.0397 0.0397 0.9992 -1.8512 2.0048)" class="st16" width="44.71" height="27.63"/>
		<g>
			<g>
				<path class="st17" d="M48.11,49.98c0.09,2.35-1.74,4.32-4.08,4.41c-2.35,0.09-4.32-1.74-4.41-4.08
					c-0.09-2.35,1.74-4.32,4.08-4.41C46.05,45.81,48.02,47.64,48.11,49.98z"/>
				<path class="st16" d="M46.68,50.04c0.06,1.55-1.15,2.86-2.71,2.92c-1.55,0.06-2.86-1.15-2.92-2.71
					c-0.06-1.55,1.15-2.86,2.71-2.92C45.31,47.27,46.62,48.48,46.68,50.04z"/>
				<polygon class="st17" points="44.66,46.13 42.76,46.2 43.19,45.23 44.17,45.2 				"/>
				<polygon class="st17" points="42.55,46.27 40.94,47.29 40.82,46.23 41.65,45.71 				"/>
				<polygon class="st17" points="40.79,47.45 39.9,49.13 39.27,48.28 39.73,47.41 				"/>
				<polygon class="st17" points="39.85,49.35 39.92,51.25 38.95,50.83 38.92,49.85 				"/>
				<polygon class="st17" points="39.99,51.47 41,53.08 39.95,53.19 39.43,52.36 				"/>
				<polygon class="st17" points="41.17,53.23 42.85,54.12 42,54.74 41.13,54.29 				"/>
				<polygon class="st17" points="43.07,54.16 44.97,54.09 44.55,55.06 43.57,55.1 				"/>
				<polygon class="st17" points="45.18,54.03 46.8,53.01 46.91,54.06 46.08,54.59 				"/>
				<polygon class="st17" points="46.95,52.85 47.84,51.16 48.46,52.01 48.01,52.88 				"/>
				<polygon class="st17" points="47.88,50.95 47.81,49.04 48.78,49.47 48.82,50.45 				"/>
				<polygon class="st17" points="47.74,48.83 46.73,47.22 47.78,47.1 48.3,47.93 				"/>
				<polygon class="st17" points="46.57,47.07 44.88,46.18 45.73,45.55 46.6,46.01 				"/>
			</g>
			<g>
				<path class="st18" d="M60.05,39.47c0.08,1.95-1.44,3.59-3.39,3.66c-1.95,0.08-3.59-1.44-3.66-3.39
					c-0.08-1.95,1.44-3.59,3.39-3.66C58.33,36,59.97,37.52,60.05,39.47z"/>
				<path class="st16" d="M58.86,39.51c0.05,1.29-0.96,2.38-2.25,2.43c-1.29,0.05-2.38-0.96-2.43-2.25
					c-0.05-1.29,0.96-2.38,2.25-2.43C57.72,37.22,58.81,38.22,58.86,39.51z"/>
				<polygon class="st18" points="57.18,36.27 55.6,36.33 55.96,35.52 56.77,35.49 				"/>
				<polygon class="st18" points="55.43,36.38 54.09,37.23 53.99,36.35 54.68,35.92 				"/>
				<polygon class="st18" points="53.96,37.36 53.23,38.76 52.7,38.05 53.08,37.33 				"/>
				<polygon class="st18" points="53.18,38.94 53.25,40.52 52.44,40.17 52.41,39.36 				"/>
				<polygon class="st18" points="53.3,40.7 54.14,42.04 53.27,42.13 52.84,41.45 				"/>
				<polygon class="st18" points="54.28,42.16 55.68,42.9 54.97,43.42 54.25,43.04 				"/>
				<polygon class="st18" points="55.86,42.94 57.44,42.88 57.09,43.69 56.27,43.72 				"/>
				<polygon class="st18" points="57.62,42.83 58.95,41.98 59.05,42.86 58.36,43.29 				"/>
				<polygon class="st18" points="59.08,41.85 59.82,40.45 60.34,41.15 59.96,41.88 				"/>
				<polygon class="st18" points="59.86,40.27 59.8,38.69 60.6,39.04 60.63,39.85 				"/>
				<polygon class="st18" points="59.74,38.51 58.9,37.17 59.77,37.07 60.21,37.76 				"/>
				<polygon class="st18" points="58.76,37.05 57.36,36.31 58.07,35.79 58.79,36.17 				"/>
			</g>
			<g>
				<path class="st19" d="M62.75,49.42c0.1,2.69-1.99,4.96-4.68,5.06c-2.69,0.1-4.96-1.99-5.06-4.68c-0.1-2.69,1.99-4.96,4.68-5.06
					C60.38,44.63,62.64,46.72,62.75,49.42z"/>
				<path class="st16" d="M61.5,49.46c0.08,2-1.48,3.69-3.49,3.77c-2,0.08-3.69-1.48-3.77-3.49c-0.08-2,1.48-3.69,3.49-3.77
					C59.74,45.9,61.43,47.46,61.5,49.46z"/>
				<polygon class="st19" points="58.5,45.33 56.92,45.39 57.25,43.96 58.06,43.93 				"/>
				<polygon class="st19" points="58.83,53.82 57.25,53.88 57.69,55.28 58.5,55.25 				"/>
				<polygon class="st19" points="57,45.37 55.53,45.97 55.36,44.52 56.11,44.21 				"/>
				<polygon class="st19" points="60.21,53.24 58.75,53.84 59.64,55 60.39,54.69 				"/>
				<polygon class="st19" points="55.6,45.92 54.43,46.99 53.77,45.69 54.37,45.14 				"/>
				<polygon class="st19" points="61.32,52.22 60.14,53.28 61.38,54.07 61.98,53.52 				"/>
				<polygon class="st19" points="54.48,46.92 53.74,48.32 52.67,47.33 53.05,46.61 				"/>
				<polygon class="st19" points="62,50.89 61.27,52.29 62.69,52.6 63.07,51.88 				"/>
				<polygon class="st19" points="53.77,48.24 53.55,49.81 52.21,49.24 52.32,48.43 				"/>
				<polygon class="st19" points="62.19,49.4 61.98,50.96 63.43,50.77 63.54,49.97 				"/>
				<polygon class="st19" points="53.55,49.73 53.89,51.28 52.43,51.2 52.25,50.4 				"/>
				<polygon class="st19" points="61.86,47.93 62.2,49.48 63.49,48.8 63.32,48.01 				"/>
				<polygon class="st19" points="53.86,51.2 54.7,52.54 53.3,52.97 52.87,52.28 				"/>
				<polygon class="st19" points="61.05,46.67 61.89,48.01 62.88,46.93 62.45,46.24 				"/>
				<polygon class="st19" points="54.64,52.48 55.89,53.45 54.73,54.33 54.08,53.83 				"/>
				<polygon class="st19" points="59.85,45.76 61.1,46.73 61.66,45.38 61.02,44.88 				"/>
				<polygon class="st19" points="55.82,53.41 57.33,53.89 56.53,55.12 55.76,54.87 				"/>
				<polygon class="st19" points="58.42,45.31 59.93,45.8 59.99,44.34 59.22,44.09 				"/>
			</g>
			<g>
				<path class="st20" d="M39.44,44.13c0.08,2.1-1.56,3.87-3.66,3.96c-2.1,0.08-3.87-1.56-3.96-3.66c-0.08-2.1,1.56-3.87,3.66-3.96
					C37.59,40.38,39.36,42.02,39.44,44.13z"/>
				<path class="st16" d="M38.47,44.16c0.06,1.57-1.16,2.89-2.73,2.95c-1.57,0.06-2.89-1.16-2.95-2.73
					c-0.06-1.57,1.16-2.89,2.73-2.95C37.09,41.38,38.41,42.6,38.47,44.16z"/>
				<polygon class="st20" points="36.12,40.93 34.89,40.98 35.15,39.86 35.78,39.84 				"/>
				<polygon class="st20" points="36.38,47.57 35.15,47.62 35.49,48.71 36.13,48.68 				"/>
				<polygon class="st20" points="34.95,40.96 33.81,41.43 33.67,40.3 34.26,40.06 				"/>
				<polygon class="st20" points="37.46,47.12 36.32,47.58 37.01,48.49 37.6,48.25 				"/>
				<polygon class="st20" points="33.86,41.4 32.94,42.23 32.43,41.21 32.9,40.78 				"/>
				<polygon class="st20" points="38.33,46.32 37.41,47.15 38.37,47.77 38.84,47.34 				"/>
				<polygon class="st20" points="32.98,42.18 32.41,43.27 31.57,42.49 31.87,41.93 				"/>
				<polygon class="st20" points="38.86,45.28 38.29,46.37 39.4,46.62 39.7,46.05 				"/>
				<polygon class="st20" points="32.43,43.21 32.26,44.44 31.21,43.99 31.29,43.36 				"/>
				<polygon class="st20" points="39.01,44.11 38.84,45.34 39.98,45.19 40.06,44.56 				"/>
				<polygon class="st20" points="32.26,44.37 32.52,45.58 31.38,45.52 31.24,44.9 				"/>
				<polygon class="st20" points="38.75,42.97 39.01,44.18 40.03,43.65 39.89,43.03 				"/>
				<polygon class="st20" points="32.49,45.52 33.15,46.57 32.06,46.9 31.72,46.36 				"/>
				<polygon class="st20" points="38.12,41.98 38.78,43.03 39.55,42.18 39.21,41.64 				"/>
				<polygon class="st20" points="33.11,46.52 34.09,47.28 33.18,47.97 32.67,47.58 				"/>
				<polygon class="st20" points="37.18,41.27 38.16,42.03 38.6,40.97 38.09,40.58 				"/>
				<polygon class="st20" points="34.03,47.25 35.21,47.63 34.59,48.59 33.98,48.39 				"/>
				<polygon class="st20" points="36.06,40.92 37.24,41.3 37.29,40.16 36.68,39.96 				"/>
			</g>
			<g>
				<path class="st21" d="M52.99,44.55c0.06,1.47-1.09,2.71-2.56,2.77c-1.47,0.06-2.71-1.09-2.77-2.56
					c-0.06-1.47,1.09-2.71,2.56-2.77C51.69,41.93,52.93,43.08,52.99,44.55z"/>
				<path class="st16" d="M52.09,44.58c0.04,0.97-0.72,1.79-1.7,1.83c-0.97,0.04-1.79-0.72-1.83-1.7c-0.04-0.97,0.72-1.79,1.7-1.83
					C51.23,42.85,52.05,43.61,52.09,44.58z"/>
				<polygon class="st21" points="50.82,42.13 49.63,42.18 49.9,41.57 50.51,41.55 				"/>
				<polygon class="st21" points="49.5,42.22 48.49,42.86 48.41,42.2 48.93,41.87 				"/>
				<polygon class="st21" points="48.39,42.96 47.84,44.02 47.44,43.48 47.73,42.94 				"/>
				<polygon class="st21" points="47.8,44.15 47.85,45.34 47.24,45.08 47.22,44.46 				"/>
				<polygon class="st21" points="47.89,45.48 48.53,46.49 47.87,46.56 47.54,46.04 				"/>
				<polygon class="st21" points="48.63,46.58 49.69,47.14 49.15,47.53 48.61,47.25 				"/>
				<polygon class="st21" points="49.82,47.17 51.02,47.12 50.75,47.73 50.13,47.75 				"/>
				<polygon class="st21" points="51.15,47.08 52.16,46.45 52.23,47.1 51.71,47.43 				"/>
				<polygon class="st21" points="52.25,46.34 52.81,45.29 53.2,45.82 52.92,46.37 				"/>
				<polygon class="st21" points="52.84,45.15 52.79,43.96 53.4,44.22 53.43,44.84 				"/>
				<polygon class="st21" points="52.75,43.83 52.12,42.81 52.78,42.74 53.1,43.26 				"/>
				<polygon class="st21" points="52.01,42.72 50.96,42.16 51.49,41.77 52.04,42.06 				"/>
			</g>
		</g>
		<polygon class="st22" points="18.28,49.93 16.48,28.86 81.72,31.32 15.9,28.27 		"/>
	</g>
	<g>
		<path class="st23" d="M31.99,52.98c0,0-1.28-0.82-2.58-0.25c-1.31,0.57-0.93,1.42-0.93,1.42l3.54-0.01l0.25-0.68L31.99,52.98z"/>
		<path class="st24" d="M27.52,53.68l5.86-1.65c0.07-0.02,0.14,0.02,0.15,0.09c0.02,0.06-0.02,0.13-0.08,0.15l-5.77,1.95
			c-0.15,0.05-0.31-0.03-0.36-0.18c-0.05-0.15,0.03-0.31,0.18-0.36C27.51,53.68,27.52,53.68,27.52,53.68z"/>
		<path class="st25" d="M26.62,53.81c0.39-0.12,1.27-0.68,1.7-0.95c0.43-0.27,0.51-0.53,1.18-0.69c0.67-0.16,1.19-0.19,1.4-0.16
			c0.21,0.04,0.47,0.04,0.75,0.08c0.28,0.04,0.48,0.27-0.04,0.47c-0.36,0.14-0.75,0.12-1.01,0.11c-0.26-0.01-0.85,0.34-1.15,0.56
			c-0.3,0.22-0.46,0.4-0.13,0.41c0.34,0.01,1.16-0.05,1.53-0.01c0.37,0.04,0.99,0.18,0.99,0.18s0.06-0.41,0.15-0.48
			c0,0-0.23-0.29-0.3-0.52c-0.07-0.23,0.18-0.56,0.4-0.27c0.22,0.3,0.56,0.77,0.57,0.9c0.02,0.13-0.25,1-0.27,1.08
			c-0.02,0.07-0.63,0.32-0.84,0.49c-0.2,0.17-0.71,0.5-0.86,0.53c-0.16,0.03-0.89-0.07-1.35-0.07c-0.46,0-1.34,0.12-1.81,0.35
			L26.62,53.81z"/>
		<path class="st20" d="M12.93,55.22c1.2,0.04,2.62-0.6,2.73-2.23c0.11-1.63-0.88-2.7-1.03-3.97c-0.15-1.27,0-3.73-1.36-4.93
			c-0.81-0.71-1.53-0.57-2.73-0.43L12.93,55.22z"/>
		<path class="st24" d="M30.51,52.83l-2.99,0.84c0,0-0.01,0-0.01,0c-0.15,0.05-0.23,0.21-0.18,0.36c0.05,0.15,0.21,0.23,0.36,0.18
			l3.15-1.07C30.73,53.04,30.62,52.94,30.51,52.83z"/>
		<path class="st20" d="M26.28,56.53c0.59-0.26,1.03-0.48,1.3-0.61c0,0-0.33-2.19-1-2.28c0,0-1.41,0.37-2.12,0.45l0,0
			c-1.49,0.15-4.06,0.56-5.41,1.3l-5.21-0.23l-0.99-4.53l-8.98,1.36c0.09,1,1.01,3.66,2.09,5.1c1.08,1.45,3.45,2.86,7.18,2.54
			c3.74-0.33,6.29-0.73,6.69-0.8c0.4-0.07,3.93-1.34,5.35-1.87c0.39-0.14,0.71-0.28,1-0.41l0,0L26.28,56.53z"/>
		<path class="st25" d="M25.4,47.66c-0.18-0.26-0.81-0.66-1.07-0.87c-0.26-0.2-0.83-1.1-0.83-1.1s0.31,0.39,0.44,0.54
			c0.14,0.15,0.76,0.65,0.87,0.67c0.11,0.03,0.36-0.07,0.19-0.44c-0.09-0.19-0.41-0.41-0.66-0.69c-0.25-0.27-0.51-0.57-0.72-0.83
			c-0.43-0.52-0.82-0.57-1.73-1.16c-0.03-0.02-0.06-0.04-0.09-0.06l-1.5,1.53c0.08,0.06,0.16,0.13,0.22,0.18
			c0.61,0.56,0.76,1.54,0.86,1.78c0.11,0.24,1.04,0.89,1.27,1.13c0.23,0.24,0.67,0.08,0.67,0.08c0.51,0.25,0.85,0.05,0.85,0.05
			c0.07,0.05,0.42,0.23,0.64,0.33c0.22,0.1,0.48,0.25,0.57,0.05c0.08-0.19-0.05-0.57-0.05-0.57C25.43,48.19,25.58,47.93,25.4,47.66z
			"/>
		<path class="st20" d="M20.55,42.54L20.55,42.54c-0.36-0.39-0.83-0.9-1.58-1.64c-1.87-1.83-3.21-2.06-4.48-2.29
			c-1.27-0.23-7.18,2.83-8.93,4.35c-1.75,1.52-2.36,4.55-1.68,9.05l8.98-1.36l-1.39-6.85l3.6-1.92c0.57,0.56,2.23,1.38,2.8,1.71
			c0.24,0.14,0.63,0.38,1.05,0.66c0.12,0.08,1.15,1.01,1.32,1.18c0,0,1.06-0.4,1.75-1.76C21.99,43.66,20.86,42.87,20.55,42.54z"/>
		<path class="st23" d="M13.57,48.93c0,0-2.64-4.68-7-2.41l1.47,7.64c0,0,2.66,0.27,4.28-0.85C13.93,52.18,13.57,48.93,13.57,48.93z
			"/>
		<path class="st14" d="M12.86,50.64c0,2.05-1.56,3.7-3.49,3.7s-3.49-1.66-3.49-3.7c0-2.05,1.56-3.7,3.49-3.7
			S12.86,48.6,12.86,50.64z"/>
		<g>
			<g>
				<g>
					<path class="st25" d="M12.13,49.86c-0.04-0.23-0.37-0.27-0.53-0.41c-0.16-0.15-0.34-0.07-0.34-0.07s-0.07-0.54-0.27-0.88
						c-0.2-0.35-0.69-0.75-1.22-1.04c-0.54-0.29-0.87-0.39-1.57-0.45c-0.7-0.06-0.68-0.13-0.82-0.31c-0.14-0.18-0.61-0.15-0.79-0.18
						c-0.18-0.03-1.19-0.08-1.23,0.57c-0.04,0.66,1.73,7.18,1.83,7.29c0.09,0.11,0.35,0.23,0.67,0.06c0.32-0.18,1.17-0.41,1.06-0.72
						c0,0,0.6-0.11,1.3-0.61c0.7-0.5,1.43-1.59,1.32-2.38c0,0,0.21-0.01,0.3-0.21C11.92,50.32,12.18,50.2,12.13,49.86z"/>
				</g>
				<g>
					<path class="st26" d="M9.95,47.25c0.79,0.02,1.04,0.39,1.23,1.11c0.16,0.6,0.18,0.89,0.19,0.99c0.06,0.1,0.25,0.43,0.31,0.8
						c0.05,0.31,0.01,0.5-0.02,0.59c0.11,0.24,0.14,0.56,0.16,0.87c0.01,0.13,0.02,0.25,0.04,0.37c0.04,0.3,0.03,0.73-0.15,0.91
						c-0.06,0.07-0.14,0.1-0.22,0.09l0.01-0.23c0.01,0,0.02,0,0.04-0.02c0.08-0.08,0.13-0.37,0.09-0.73
						c-0.02-0.12-0.03-0.25-0.04-0.38c-0.03-0.31-0.05-0.63-0.16-0.84l-0.03-0.06l0.04-0.06l0,0c0,0,0.08-0.14,0.02-0.49
						c-0.07-0.39-0.29-0.74-0.3-0.75l-0.02-0.03l0-0.04c0,0,0.01-0.26-0.18-0.96c-0.2-0.73-0.41-0.92-1.02-0.94L9.95,47.25z"/>
				</g>
				<g>
					<path class="st27" d="M9.17,48.02c0.61,0.18,1.24,0.7,1.35,2.01c0.11,1.3,1.39,2.45,2.05,2.05c0,0-0.65,0.56-1.44-0.14
						c0,0,0.34,1.26,1.48,0.95c0,0-0.19,0.29-0.58,0.32c-0.39,0.04-0.39,0.36-0.92,0.49c-0.54,0.12-0.96-0.15-0.96-0.15
						s0.46,0.58,1.13,0.39c0,0-0.21,0.34-0.91,0.44c-0.7,0.09-1.4,0.43-2.27,0.67c-0.87,0.24-2.22,0.49-3.21,0.03
						c-0.98-0.46-1.91-1.03-2.25-2.54c-0.34-1.52,0.14-2.68,0.14-2.68S2.3,49.44,2.63,48.7c0.33-0.74,2.17-2.05,4.38-2.4
						c2.21-0.35,3.09,0.71,3.53,1.45C10.54,47.75,9.77,47.06,9.17,48.02z"/>
				</g>
			</g>
			<g>
				<path class="st26" d="M3.88,54.5c-1.35-1.03-0.94-4.26,0.25-4.39c1.19-0.13,1.12,0.63,1.12,0.63s0.8-1.78,3.13-1.65
					c2.33,0.13,1.83,2,2.75,2.85c0.79,0.69,1.44,0.14,1.44,0.14c-0.66,0.4-1.94-0.75-2.05-2.05c-0.11-1.3-0.73-1.83-1.35-2.01
					c-4.24,0.03-6.4,1.84-6.4,1.84s-0.49,1.16-0.14,2.68C2.85,53.51,3.31,54.09,3.88,54.5z"/>
			</g>
			<g>
				<path class="st26" d="M2.63,48.7c-0.14,0.32-0.14,0.58-0.08,0.77c-0.07-0.92,1.51-2.08,2.4-1.95c0.89,0.12,0.91-0.4,2.41-0.81
					c1.5-0.41,2.84,0.56,3.18,1.05c-0.44-0.75-1.32-1.8-3.53-1.45C4.8,46.65,2.97,47.96,2.63,48.7z"/>
			</g>
		</g>
		<g>
			<path class="st23" d="M25.06,48.12c-0.13-0.08-0.29-0.17-0.46-0.26c-0.17-0.1-0.35-0.19-0.52-0.31
				c-0.31-0.26-0.58-0.59-0.78-0.82c-0.2-0.24-0.33-0.4-0.33-0.4s0.13,0.16,0.32,0.4c0.2,0.24,0.46,0.56,0.77,0.84
				c0.17,0.12,0.35,0.22,0.52,0.32c0.17,0.1,0.32,0.2,0.45,0.28c0.15,0.09,0.26,0.16,0.34,0.21c-0.02-0.06-0.03-0.1-0.03-0.1
				C25.26,48.24,25.17,48.19,25.06,48.12z"/>
			<path class="st23" d="M24.06,48.36c-0.19-0.16-0.48-0.33-0.71-0.56c-0.47-0.47-0.84-1.01-0.84-1.01s0.36,0.56,0.82,1.04
				c0.23,0.24,0.51,0.42,0.7,0.58c0.04,0.03,0.07,0.06,0.09,0.09c0.04-0.02,0.07-0.03,0.07-0.03c0,0,0.02,0.01,0.02,0.01
				C24.16,48.44,24.12,48.4,24.06,48.36z"/>
			<path class="st23" d="M22.6,47.77c-0.25-0.22-0.53-0.42-0.64-0.65c-0.11-0.22-0.15-0.39-0.15-0.39s0.03,0.16,0.14,0.39
				c0.1,0.24,0.38,0.44,0.62,0.67c0.25,0.22,0.5,0.44,0.69,0.6c0.01,0.01,0.02,0.02,0.03,0.03c0.02,0,0.04-0.01,0.04-0.01
				c0.03,0.01,0.05,0.02,0.08,0.03c-0.03-0.03-0.07-0.06-0.11-0.09C23.11,48.19,22.86,47.98,22.6,47.77z"/>
		</g>
		<path class="st28" d="M26.58,53.64c0,0-1.41,0.37-2.12,0.45l0,0c-1.49,0.15-4.06,0.56-5.41,1.3l-5.21-0.23l-0.01-0.04
			c0.92-0.24,1.74-0.9,1.83-2.13c0.06-0.86-0.19-1.56-0.45-2.21c0.25,0.68,0.39,2.85-0.73,3.45c-1.12,0.6-2.35,1.36-2.35,1.36
			s7.21,0.8,7.37,0.68c0.15-0.12,4.4-1.61,7.55-2.17C26.92,53.84,26.76,53.66,26.58,53.64z"/>
		<path class="st28" d="M20.87,45.04c-0.86-0.49-1.73-1.36-2.77-2.06c-1.04-0.7-3.26-2.13-3.26-2.13s-3.63,2.5-4.92,3.06
			c0,0,3.78-0.2,4.61,3.72c-0.09-1.24-0.3-2.69-1.26-3.54c-0.44-0.39-0.87-0.52-1.36-0.54l3.15-1.68c0.57,0.56,2.23,1.38,2.8,1.71
			c0.24,0.14,0.63,0.38,1.05,0.66c0.12,0.08,1.15,1.01,1.32,1.18C20.25,45.43,20.52,45.32,20.87,45.04z"/>
	</g>
	<g>
		<path class="st29" d="M37.61,61.08l6.51,0.01c0.06,0,0.1-0.04,0.11-0.1l0.27-5.2c0-0.06-0.05-0.11-0.11-0.11l-7.28,0.07
			c-0.06,0-0.11,0.05-0.11,0.12l0.5,5.12C37.51,61.04,37.55,61.08,37.61,61.08z"/>
		<path class="st30" d="M37.11,55.74c-0.06,0-0.11,0.05-0.11,0.12l0.48,4.97L44,60.85c0.06,0,0.1-0.04,0.11-0.1l0.26-5.07
			L37.11,55.74z"/>
		<polygon class="st1" points="38.03,60.51 37.62,56.31 43.9,56.25 43.68,60.52 		"/>
		<polygon class="st0" points="38.02,60.42 37.62,56.31 43.79,56.25 43.57,60.44 		"/>
		<polygon class="st1" points="43.9,56.25 37.62,56.31 37.66,56.74 43.87,56.92 		"/>
		<path class="st31" d="M42.02,55.7l-4.58,4.67l0.06,0.61c0.01,0.05,0.05,0.1,0.11,0.1l0.37,0l4.34-5.38L42.02,55.7z"/>
		<polygon class="st31" points="43.25,55.69 39.38,61.08 40.86,61.09 44.26,55.68 		"/>
		<path class="st25" d="M48.54,63.32c-0.39-0.53-0.34-1.01-0.89-1.55c-0.54-0.54-0.32-0.42-0.89-1.52c-0.56-1.1-1.18-1.63-1.47-1.9
			c-0.18-0.17-0.61-0.34-0.91-0.45l-0.12,2.42c0.1,0.44,0.16,1.04,0.06,1.14c-0.15,0.14-0.45-0.17-1.27-0.42
			c-0.81-0.25-1.45-0.01-1.42,0.33c0.03,0.34,1.03,0.29,1.83,1.06c0.8,0.77,2.17,0.92,2.61,1.12c0.38,0.17,0.83,0.9,0.96,1.24
			c0.59-0.34,1.21-0.65,1.83-0.93C48.72,63.61,48.61,63.42,48.54,63.32z"/>
		<path class="st7" d="M50.87,67.56c-0.17-0.33-1.31-2.51-1.96-3.63c-0.63,0.28-1.25,0.59-1.85,0.94c0.01,0.02,0.01,0.04,0.02,0.05
			c0.03,0.22,1.07,4.35,0.98,4.9C47.96,70.38,46,74.73,46,74.73s-1.51-0.89-2.81-1c-0.85-0.07-1.5-0.13-2.6-0.17
			c-0.58-0.02-1.28-0.03-2.21-0.03c-2.68,0-4.01,1.18-4.01,1.18l-1.46-5.38c0.56-0.96,1.28-3.42,1.99-4.78
			c-0.15-0.09-0.3-0.18-0.43-0.28c-0.42-0.33-0.82-0.67-1.25-0.97c-0.87,1.2-2.62,3.57-3.2,4.43c-0.74,1.1,0.02,7-0.01,9.12
			c-0.03,2.12,0.56,3.63,2.09,4.94c1.52,1.31,3.7,2.16,5.59,2.47c0,0,6.21,0.18,7-0.06c0.79-0.24,4.11-1.78,4.6-3.36
			c0.49-1.59,0.98-4.14,1.15-5.07c0.18-0.93,0.9-4.18,1.02-5.63C51.58,68.7,51.08,67.98,50.87,67.56z"/>
		<g>
			<path class="st25" d="M37.23,79.99c0.56-0.96,1.28-1.48,1.95-1.64c0.67-0.17,0.97-0.16,0.97-0.16s0.36-0.59,0.56-0.63
				c0.21-0.04,0.5,0.46,0.52,0.69c0,0,2.04,0.37,2.26,2l0.18,2.47l-6.21,0.45L37.23,79.99z"/>
			<path class="st25" d="M36.68,81.18c-0.13-0.02-0.39,0.28-0.54,0.86c-0.15,0.57-0.08,1.09,0.28,1.2
				C36.77,83.35,36.68,81.18,36.68,81.18z"/>
			<path class="st25" d="M44.36,81.89c0,0,0.38,0.07,0.44,0.95c0.06,0.89-0.41,1.09-0.66,0.96C43.91,83.68,44.36,81.89,44.36,81.89z
				"/>
			<path class="st32" d="M37.5,79.58c0,0-0.16,0.77,0.09,1.3c0,0,0.64-1.6,2.72-1.37c0,0-1.19,0.37-1.31,0.73
				c0,0,2.64-1.08,3.88,0.73c0,0-0.32-0.21-0.77-0.23c0,0,0.74,0.46,1.01,0.94c0,0,0.3-0.77,0.16-2.09c0,0,0.96,0.72,1.08,2.3
				c0.11,1.59-0.3,3.68-1.19,4.64c-0.89,0.96-3.17,0.89-4.06,0.67c-0.88-0.22-2.78-1.39-2.71-3.72
				C36.47,81.15,36.92,80.22,37.5,79.58z"/>
			<path class="st33" d="M40.35,87.33c-0.5-0.01-0.95-0.06-1.24-0.13c-0.88-0.22-2.78-1.39-2.71-3.72c0.07-2.33,0.51-3.25,1.1-3.89
				c0,0-0.16,0.77,0.09,1.3c0,0,0.64-1.6,2.72-1.37c0,0-1.19,0.37-1.31,0.73c0,0,0.24-0.1,0.6-0.18c-0.6,0.18-3.03,2.52-1.53,5.09
				c0,0-0.3-0.94,0.45-1.85C38.53,83.28,38.16,86.51,40.35,87.33z"/>
			<path class="st33" d="M43.77,81.84c-0.08,2.49-1.02,3.66-1.02,3.66c1.08-3.27-0.63-4.77-0.63-4.77s0.74,0.46,1.01,0.94
				c0,0,0.3-0.77,0.16-2.09c0,0,0.96,0.72,1.08,2.3c0.05,0.69,0,1.49-0.15,2.24C44.23,82.51,43.77,81.84,43.77,81.84z"/>
		</g>
		<path class="st16" d="M46.63,64.57l-0.47-0.84c0,0,0.66-1.12,2.1-1.22l0.33,0.71L46.63,64.57z"/>
		<path class="st7" d="M48.05,69.82l-1.61-5.47c0,0,1-1.1,2.25-1.25c0,0,2.41,4.28,2.6,5.38c0.19,1.1-0.83,1.62-0.83,1.62
			L48.05,69.82z"/>
		<path class="st25" d="M39.49,60.94c-0.7-0.13-1.13,0.38-1.5,0.25c-0.37-0.12-0.57-0.8-0.57-0.8l-0.04-0.71l-0.13-1.36
			c-0.69,0.31-2.02,2.86-2.57,3.1c-0.57,0.24-0.65,0.73-0.97,1.2c-0.06,0.1-0.22,0.32-0.44,0.61c0.49,0.34,0.94,0.74,1.42,1.1
			c0.08,0.06,0.16,0.11,0.25,0.16c0.18-0.33,0.35-0.59,0.52-0.74c0.88-0.76,1.59-0.88,2.46-1.23c0.87-0.35,1.36-0.56,1.62-0.77
			c0.27-0.22,1.04-0.01,1.09-0.3C40.67,61.16,40.19,61.07,39.49,60.94z"/>
		<path class="st16" d="M33.57,62.52l0.42-0.64c0,0,1.17,0.21,2.08,1.43L35.38,64L33.57,62.52z"/>
		<path class="st7" d="M30.02,67.73c0,0,2.67-4.18,3.37-5.23c0,0,1.22,0.07,2.25,1.34c0,0-1.21,1.71-1.53,2.55l-1.79,0.93
			L30.02,67.73z"/>
		<path class="st11" d="M46.9,63.94c-0.28,0.23-0.45,0.41-0.45,0.41l1.61,5.47c-0.09,0.56-2.06,4.91-2.06,4.91s-1.5-0.89-2.8-1
			c-0.85-0.07-1.5-0.13-2.6-0.17c-0.58-0.02-1.28-0.03-2.21-0.03c-2.68,0-4.01,1.18-4.01,1.18l-1.46-5.38
			c0.35-0.61,0.77-1.82,1.22-2.98c0.33-0.85,1.52-2.53,1.52-2.53c-0.17-0.21-0.35-0.38-0.52-0.53c-0.65,0.98-3.1,5.41-3.05,5.94
			c0.05,0.52,1.43,7.17,1.5,7.46c0,0,2.68-2.92,6.88-2.43c4.2,0.49,6,2.56,6,2.56s2.6-6.27,2.6-6.76
			C49.05,69.65,47.41,65.29,46.9,63.94z"/>
	</g>
	<g>
		<g>
			<polygon class="st14" points="72.84,64.25 65.65,68.83 59.67,59.61 66.86,55.03 			"/>
			<polygon class="st34" points="72.92,64.12 65.73,68.7 59.75,59.48 66.94,54.9 			"/>
			
				<rect x="59.3" y="57.13" transform="matrix(0.8437 -0.5368 0.5368 0.8437 -20.9442 43.1117)" class="st35" width="8.52" height="0.78"/>
		</g>
		<g class="st36">
			<polygon class="st35" points="61.62,60.44 61.51,60.26 66.91,56.87 67.02,57.04 			"/>
		</g>
		<g class="st36">
			<polygon class="st35" points="62.13,61.23 62.03,61.05 67.43,57.66 67.53,57.83 			"/>
		</g>
		<g class="st36">
			<polygon class="st35" points="62.65,62.02 62.54,61.84 67.94,58.45 68.05,58.62 			"/>
		</g>
		<g class="st36">
			
				<rect x="63.34" y="62.09" transform="matrix(0.8484 -0.5293 0.5293 0.8484 -22.8366 44.6438)" class="st35" width="6.38" height="0.2"/>
		</g>
		<g class="st36">
			
				<rect x="63.92" y="63" transform="matrix(0.8464 -0.5326 0.5326 0.8464 -23.2979 45.4353)" class="st35" width="6.38" height="0.2"/>
		</g>
		<g class="st36">
			<polygon class="st35" points="65.04,65.79 64.93,65.62 70.33,62.22 70.44,62.4 			"/>
		</g>
		<g class="st36">
			<polygon class="st35" points="65.62,66.7 65.51,66.53 70.91,63.13 71.02,63.3 			"/>
		</g>
		<rect x="64.92" y="59.73" class="st23" width="1.61" height="1.11"/>
		<path class="st37" d="M62.56,68.36c-0.04-0.13-0.27-0.39-0.49-0.58c-0.22-0.2-0.98-0.65-1.14-0.7c-0.16-0.05-0.52-0.23-0.58-0.14
			c-0.06,0.08,0.98,1.37,0.98,1.37L62.56,68.36z"/>
		<path class="st25" d="M60.35,67.71c0.16-0.32,0.41-1.23,0.66-1.66c0.25-0.43,0.32-0.69,0.74-1.71c0.42-1.01,0.42-1.24,0.54-1.28
			c0.12-0.04,0.27,0.19,0.24,0.39c-0.03,0.2-0.48,1.35-0.4,1.39c0.08,0.04,0.79-1.24,1.07-1.64c0.28-0.4,0.33-0.56,0.48-0.51
			c0.15,0.05,0.21,0.22,0.03,0.56c-0.19,0.33-0.93,1.48-0.96,1.53c-0.03,0.06,0.78-0.9,1.07-1.28c0.29-0.38,0.49-0.72,0.56-0.7
			c0.07,0.02,0.29,0.12,0.14,0.42c-0.15,0.29-0.85,1.36-0.99,1.55c-0.14,0.19-0.24,0.24-0.21,0.29c0.03,0.06,0.56-0.54,0.76-0.75
			c0.2-0.21,0.68-0.85,0.77-0.82c0.08,0.03,0.33,0.19-0.05,0.66s-1.01,1.29-1.15,1.42c-0.14,0.13-0.29,0.78-0.27,0.91
			c0.02,0.13,0.54,0.11,1.09-0.04c0.55-0.15,0.81,0.09,0.88,0.2c0.07,0.11-0.45,0.24-0.92,0.4c-0.47,0.16-0.82,0.31-1.26,0.47
			c-0.44,0.16-0.85,0.56-1.14,0.78c-0.29,0.22-0.56,0.49-0.56,0.49L60.35,67.71z"/>
		<path class="st38" d="M67.98,76.01c-3.32,0.34-3.58,1.92-3.97,1.85c-0.58-0.09-3.2-3.49-3.2-3.49s0.59-1.48,0.8-2.57
			c0.2-1.09,0.96-3.45,0.96-3.45c-0.99-0.15-2.21-1.43-2.21-1.43c-0.63,1.47-2.05,5.16-2.51,6.59c-0.42,1.29-0.19,1.41,1.02,4.17
			c1.02,2.32,1.2,2.6,2.59,4.81c1.32,2.11,6.49,1.75,8.61,1.92l1.58-7.2C71.33,77.16,68.3,75.98,67.98,76.01z"/>
		<path class="st25" d="M64.49,60.57c-0.18,0.03-0.4,0-0.35-0.15c0.05-0.15,0.38-0.71,0.61-1.04c0.23-0.33,0.41-0.46,0.98-0.61
			l-0.2,1.34c0,0-0.36-0.01-0.62,0.08C64.61,60.29,64.49,60.57,64.49,60.57z"/>
		<polygon class="st6" points="64.57,61.28 64.68,61.59 64.85,61.3 65,60.25 64.7,59.98 		"/>
		<path class="st6" d="M64.98,60.35c0,0,0.24-1.4,0.3-1.73c0.06-0.33,0.1-0.65-0.06-0.67c-0.16-0.03-0.32-0.14-0.36,0.34
			c-0.04,0.48-0.18,1.91-0.18,1.91S64.81,60.36,64.98,60.35z"/>
		<path class="st25" d="M69.33,62.77c-0.39-0.25-0.72-0.63-1.37-0.71c-0.65-0.08-1.45-0.1-1.94-0.41s-1.06-0.66-1.24-0.81
			c-0.18-0.15-0.71-0.66-0.53-0.78c0.17-0.12,0.56,0,0.85,0.27c0.29,0.27,0.94,0.43,1.16,0.35c0.21-0.08-0.56-0.59-0.72-0.58
			c-0.16,0-0.28,0.01-0.28,0.01s0.36-1.19,0.4-1.29c0.03-0.09,0.66-0.22,0.96-0.25c0.3-0.03,0.62-0.12,0.96,0.22
			c0.35,0.33,1.22,1.42,1.44,1.6c0.22,0.18,1.46,0.99,1.46,0.99L69.33,62.77z"/>
		<path class="st38" d="M68.68,62.88c0,0,0.44-1.65,1.29-1.99c0,0,1.8,0.93,2.82,1.61c1.02,0.67,5.15,3.47,5.22,3.93
			c0.07,0.46,0.32,3.64-0.25,6.65c-0.57,3.01-1.51,8.47-3.52,9.98c-1.85,1.39-4.73,1.23-4.73,1.23l0.47-6.56
			c0,0-5.33-0.38-5.05-0.68c1.66-1.74,5.47-1.91,7.14-1.9c0.48,0,0.9-0.31,1.04-0.77c0.52-1.76,1.73-5.83,1.71-6.06
			c-0.02-0.3-2.45-2.6-3.04-3.21C71.2,64.51,68.68,62.88,68.68,62.88z"/>
		<path class="st21" d="M75.91,67.63c-0.52-0.97-5.48-4.69-6.85-5.71c-0.25,0.49-0.38,0.96-0.38,0.96s2.52,1.62,3.11,2.23
			c0.59,0.61,3.02,2.91,3.04,3.21c0.02,0.23-1.19,4.31-1.71,6.06c-0.14,0.46-0.56,0.78-1.04,0.77c-1.67-0.01-5.47,0.15-7.14,1.9v0
			c-0.55,0.44-0.72,0.83-0.92,0.8c-0.58-0.09-3.2-3.49-3.2-3.49s0.59-1.48,0.8-2.57c0.2-1.09,0.96-3.45,0.96-3.45
			c-0.2-0.03-0.4-0.11-0.6-0.21c-0.65,2.12-2.08,6.12-2.08,6.12s3.34,4.68,3.68,5.05c0.34,0.37,2.19-2.03,3.78-2.17
			c1.59-0.14,5.61,0.18,5.94-0.44C73.61,76.08,76.51,68.76,75.91,67.63z"/>
		<g>
			<path class="st25" d="M67.83,74.64c-0.24,0.05-0.26,0.39-0.4,0.56c-0.14,0.17-0.06,0.35-0.06,0.35s-0.54,0.09-0.89,0.31
				c-0.35,0.22-0.73,0.73-1.01,1.28c-0.27,0.56-0.36,0.9-0.39,1.62c-0.03,0.71-0.1,0.7-0.29,0.85c-0.18,0.15-0.13,0.62-0.15,0.81
				c-0.02,0.19-0.04,1.21,0.63,1.22c0.67,0.02,7.24-2.04,7.35-2.14c0.11-0.1,0.22-0.37,0.03-0.68c-0.19-0.31-0.46-1.17-0.77-1.06
				c0,0-0.13-0.6-0.67-1.3c-0.54-0.7-1.67-1.39-2.47-1.25c0,0-0.01-0.22-0.23-0.3C68.3,74.84,68.17,74.58,67.83,74.64z"/>
			<path class="st39" d="M67.95,84.09c-1.16,0.01-2.16-1.07-2.67-2.44c-0.51-1.37-0.36-2.83-0.28-3.24
				c0.08-0.41,0.76-0.65,1.08-0.95c0.32-0.3,1.09-1.3,2.44-1.37c1.35-0.07,2.26,0.77,2.68,0.88c0.42,0.11,0.59,0.31,0.88,0.99
				c0.29,0.68,0.68,1.71,0.62,2.67c-0.05,0.95-0.3,1.94-0.91,2.34c0,0,0.75,0.27,0.61,1.2c-0.14,0.93-1.12,1.49-2.55,1.6
				C68.67,85.87,67.55,85.15,67.95,84.09z"/>
			<path class="st39" d="M66.1,77.59c0,0,0.04-0.09,0.14-0.24c0.09-0.15,0.23-0.35,0.44-0.57c0.39-0.44,1.11-0.9,1.91-0.95
				c0.39-0.03,0.79,0.02,1.14,0.13c0.35,0.11,0.65,0.27,0.92,0.37c0.54,0.23,0.94,0.15,0.94,0.15s-0.1,0.02-0.27,0.02
				c-0.17,0-0.41-0.04-0.69-0.14c-0.28-0.1-0.58-0.24-0.93-0.33c-0.35-0.09-0.73-0.13-1.11-0.09c-0.77,0.08-1.42,0.53-1.78,0.96
				c-0.37,0.43-0.51,0.79-0.51,0.79L66.1,77.59z"/>
			<path class="st39" d="M65.96,77.93c0,0,0.07-0.08,0.16-0.22c0.09-0.14,0.21-0.36,0.38-0.61c0.17-0.26,0.43-0.53,0.79-0.7
				c0.35-0.17,0.77-0.22,1.17-0.23c0.2,0.01,0.4-0.01,0.6,0.05c0.19,0.05,0.38,0.11,0.56,0.16c0.36,0.11,0.69,0.21,0.98,0.26
				c0.59,0.13,0.99,0.01,0.99,0.01s-0.39,0.13-0.99,0.02c-0.3-0.05-0.64-0.13-1-0.23c-0.18-0.05-0.37-0.1-0.55-0.14
				c-0.18-0.04-0.38-0.02-0.58-0.02c-0.39,0.02-0.79,0.09-1.1,0.25c-0.32,0.17-0.55,0.42-0.69,0.67c-0.15,0.25-0.26,0.47-0.36,0.63
				c-0.1,0.16-0.16,0.23-0.16,0.23L65.96,77.93z"/>
			<path class="st40" d="M68.92,83.7c0.87-1,2.87-0.73,2.87-0.73c-1.27-0.77-2.45,0.6-4.18-0.31c-1.73-0.91-1.91-4.29-1.11-5.6
				c0,0-0.02-0.01-0.02-0.01c-0.17,0.16-0.3,0.31-0.39,0.4c-0.32,0.3-0.99,0.54-1.08,0.95c-0.08,0.41-0.23,1.87,0.28,3.24
				c0.51,1.37,1.51,2.45,2.67,2.44c-0.4,1.06,0.72,1.78,1.9,1.69c1-0.08,1.76-0.37,2.19-0.86C70.49,85.62,68.05,84.7,68.92,83.7z"/>
		</g>
	</g>
	<g>
		<path class="st22" d="M42.44,39.6L37.2,41c-0.1,0.03-0.2-0.03-0.23-0.13l-1.94-7.26c-0.03-0.1,0.03-0.2,0.13-0.23l5.24-1.4
			c0.1-0.03,0.2,0.03,0.23,0.13l1.94,7.26C42.6,39.47,42.54,39.57,42.44,39.6z"/>
		
			<rect x="37.19" y="32.95" transform="matrix(0.9661 -0.2583 0.2583 0.9661 -8.2672 10.8754)" class="st22" width="0.14" height="7.89"/>
	</g>
	<g>
		<path class="st17" d="M42.11,39.18l-5.24,1.4c-0.1,0.03-0.2-0.03-0.23-0.13l-1.94-7.26c-0.03-0.1,0.03-0.2,0.13-0.23l5.24-1.4
			c0.1-0.03,0.2,0.03,0.23,0.13l1.94,7.26C42.27,39.06,42.21,39.16,42.11,39.18z"/>
		
			<rect x="36.85" y="32.54" transform="matrix(0.9662 -0.2576 0.2576 0.9662 -8.1533 10.7435)" class="st41" width="0.14" height="7.89"/>
	</g>
	<path class="st22" d="M38.23,35.94l-6.22-3.65c-0.09-0.05-0.2-0.02-0.25,0.07l-2.06,3.51l0,0l-0.07,0.11l0,0l-0.51,0.86
		c-0.05,0.09-0.02,0.2,0.07,0.25l6.22,3.65c0.09,0.05,0.2,0.02,0.25-0.07l2.63-4.48C38.35,36.11,38.32,36,38.23,35.94z"/>
	<g>
		<path class="st22" d="M23.87,36.6c-0.23-1.12-1.22-1.96-2.4-1.96c-0.01,0-0.02,0-0.04,0c-0.62,0.01-1.18,0.25-1.61,0.64l-0.4-0.4
			c-0.11-0.11-0.29-0.11-0.41,0l-0.06,0.06c-0.11,0.11-0.11,0.29,0,0.41l0.42,0.42c0.01,0.01,0.02,0.01,0.03,0.01
			c-0.24,0.38-0.39,0.83-0.39,1.32c0,0.85,0.43,1.59,1.08,2.03c0.39,0.26,0.86,0.42,1.37,0.42s0.98-0.15,1.37-0.42
			c0.26-0.18,0.49-0.4,0.66-0.66c0.18-0.26,0.3-0.56,0.37-0.88c0.03-0.16,0.05-0.33,0.05-0.49C23.92,36.93,23.9,36.76,23.87,36.6z"
			/>
		<g>
			<circle class="st16" cx="21.11" cy="36.51" r="2.45"/>
			<path class="st42" d="M21.11,34.05c-0.01,0-0.02,0-0.04,0c1.3,0.02,2.34,1.07,2.34,2.37c0,1.31-1.06,2.38-2.38,2.38
				c-1.3,0-2.35-1.04-2.37-2.34c0,0.01,0,0.02,0,0.04c0,1.35,1.1,2.45,2.45,2.45c1.35,0,2.45-1.1,2.45-2.45
				C23.56,35.15,22.46,34.05,21.11,34.05z"/>
			<circle class="st13" cx="21.11" cy="36.51" r="1.92"/>
			<path class="st43" d="M22.98,36.55c0,1-0.81,1.82-1.82,1.82c-1,0-1.82-0.81-1.82-1.82c0-1,0.81-1.81,1.82-1.81
				C22.16,34.74,22.98,35.55,22.98,36.55z"/>
			<path class="st9" d="M22.63,36.51c0,0.84-0.68,1.53-1.53,1.53c-0.84,0-1.53-0.68-1.53-1.53c0-0.84,0.68-1.53,1.53-1.53
				C21.95,34.98,22.63,35.66,22.63,36.51z"/>
			<path class="st10" d="M19.82,36.63c0-0.78,0.63-1.41,1.41-1.41c0.76,0,1.37,0.6,1.4,1.35c0-0.02,0.01-0.04,0.01-0.06
				c0-0.84-0.68-1.53-1.53-1.53c-0.84,0-1.53,0.68-1.53,1.53c0,0.84,0.68,1.53,1.53,1.53c0.02,0,0.04,0,0.06-0.01
				C20.42,37.99,19.82,37.38,19.82,36.63z"/>
			<path class="st16" d="M19.06,34.29l0.43,0.43c0.11,0.11,0.11,0.29,0,0.39l-0.07,0.07c-0.11,0.11-0.29,0.11-0.4,0l-0.43-0.43
				c-0.11-0.11-0.11-0.29,0-0.39l0.07-0.07C18.77,34.18,18.95,34.18,19.06,34.29z"/>
		</g>
	</g>
	<g>
		<path class="st22" d="M58.19,67.28c0.93-0.66,1.31-1.9,0.84-2.98c-0.01-0.01-0.01-0.02-0.02-0.03c-0.26-0.57-0.7-0.98-1.23-1.22
			l0.21-0.53c0.06-0.15-0.01-0.31-0.16-0.37l-0.07-0.03c-0.15-0.06-0.31,0.01-0.37,0.16l-0.22,0.55c0,0.01,0,0.02,0,0.03
			c-0.45-0.07-0.92-0.03-1.36,0.17c-0.78,0.34-1.29,1.03-1.43,1.8c-0.09,0.46-0.04,0.96,0.16,1.42c0.2,0.47,0.53,0.84,0.93,1.09
			c0.27,0.17,0.56,0.29,0.87,0.34c0.31,0.06,0.63,0.06,0.95-0.01c0.16-0.03,0.32-0.08,0.47-0.15
			C57.91,67.46,58.06,67.38,58.19,67.28z"/>
		<g>
			<path class="st16" d="M57.53,66.9c-1.24,0.54-2.69-0.03-3.23-1.27c-0.54-1.24,0.03-2.69,1.27-3.23c1.24-0.54,2.69,0.03,3.23,1.27
				C59.34,64.92,58.77,66.36,57.53,66.9z"/>
			<path class="st42" d="M58.8,63.67c-0.01-0.01-0.01-0.02-0.02-0.03c0.5,1.2-0.05,2.57-1.24,3.09c-1.2,0.52-2.6-0.03-3.13-1.23
				c-0.52-1.19,0.02-2.57,1.2-3.11c-0.01,0.01-0.02,0.01-0.04,0.01c-1.24,0.54-1.81,1.98-1.27,3.23c0.54,1.24,1.98,1.81,3.23,1.27
				C58.77,66.36,59.34,64.92,58.8,63.67z"/>
			<path class="st13" d="M57.32,66.42c-0.97,0.42-2.11-0.02-2.53-1c-0.42-0.97,0.02-2.11,1-2.53c0.97-0.42,2.11,0.02,2.53,1
				C58.74,64.86,58.29,65.99,57.32,66.42z"/>
			<path class="st43" d="M57.25,66.39c-0.92,0.4-1.99-0.02-2.39-0.94c-0.4-0.92,0.02-1.99,0.94-2.39c0.92-0.4,1.99,0.02,2.39,0.94
				C58.59,64.92,58.17,65.99,57.25,66.39z"/>
			<path class="st9" d="M57.16,66.05c-0.77,0.34-1.67-0.02-2.01-0.79c-0.34-0.77,0.02-1.67,0.79-2.01c0.77-0.34,1.67,0.02,2.01,0.79
				C58.28,64.82,57.93,65.71,57.16,66.05z"/>
			<path class="st10" d="M55.93,63.52c0.71-0.31,1.54,0.02,1.85,0.73c0.3,0.69,0,1.49-0.68,1.82c0.02-0.01,0.04-0.01,0.06-0.02
				c0.77-0.34,1.13-1.23,0.79-2.01c-0.34-0.77-1.23-1.13-2.01-0.79c-0.77,0.34-1.13,1.23-0.79,2.01c0.01,0.02,0.02,0.03,0.03,0.05
				C54.91,64.61,55.23,63.82,55.93,63.52z"/>
			<path class="st16" d="M57.76,61.9l-0.22,0.55c-0.06,0.15-0.23,0.22-0.37,0.16l-0.08-0.03c-0.15-0.06-0.22-0.23-0.16-0.37
				l0.22-0.55c0.06-0.15,0.22-0.22,0.37-0.16l0.08,0.03C57.74,61.58,57.82,61.75,57.76,61.9z"/>
		</g>
	</g>
	<g>
		<path class="st22" d="M29.38,64.48c-0.11-1.14-1-2.08-2.18-2.2c-0.01,0-0.02,0-0.04,0c-0.62-0.06-1.2,0.12-1.67,0.47l-0.35-0.44
			c-0.1-0.12-0.28-0.14-0.4-0.04l-0.06,0.05c-0.12,0.1-0.14,0.28-0.04,0.4L25,63.17c0.01,0.01,0.02,0.01,0.03,0.02
			c-0.28,0.35-0.48,0.78-0.53,1.27c-0.09,0.84,0.26,1.63,0.86,2.14c0.36,0.3,0.81,0.51,1.32,0.56c0.5,0.05,0.99-0.05,1.41-0.27
			c0.28-0.15,0.53-0.35,0.73-0.59c0.2-0.24,0.36-0.52,0.46-0.83c0.05-0.16,0.08-0.32,0.1-0.49C29.39,64.81,29.39,64.64,29.38,64.48z
			"/>
		<g>
			<path class="st16" d="M29.04,64.61c-0.14,1.35-1.35,2.32-2.7,2.18c-1.35-0.14-2.32-1.35-2.18-2.7c0.14-1.35,1.35-2.32,2.7-2.18
				C28.21,62.06,29.19,63.27,29.04,64.61z"/>
			<path class="st42" d="M26.87,61.92c-0.01,0-0.02,0-0.04,0c1.29,0.16,2.21,1.32,2.07,2.61c-0.14,1.3-1.31,2.25-2.62,2.11
				c-1.29-0.14-2.23-1.29-2.11-2.58c0,0.01-0.01,0.02-0.01,0.04c-0.14,1.35,0.83,2.55,2.18,2.7c1.35,0.14,2.55-0.83,2.7-2.18
				C29.19,63.27,28.21,62.06,26.87,61.92z"/>
			<path class="st13" d="M28.52,64.56c-0.11,1.06-1.06,1.82-2.12,1.71c-1.06-0.11-1.82-1.06-1.71-2.12
				c0.11-1.06,1.06-1.82,2.12-1.71C27.87,62.55,28.63,63.5,28.52,64.56z"/>
			<path class="st43" d="M28.46,64.6c-0.11,1-1,1.72-2,1.61c-1-0.11-1.72-1-1.61-2c0.11-1,1-1.72,2-1.61
				C27.85,62.71,28.57,63.6,28.46,64.6z"/>
			<path class="st9" d="M28.12,64.52c-0.09,0.84-0.84,1.44-1.68,1.35c-0.84-0.09-1.44-0.84-1.35-1.68c0.09-0.84,0.84-1.44,1.68-1.35
				C27.61,62.93,28.21,63.68,28.12,64.52z"/>
			<path class="st10" d="M25.31,64.34c0.08-0.77,0.78-1.33,1.55-1.25c0.75,0.08,1.3,0.74,1.25,1.49c0-0.02,0.01-0.04,0.01-0.06
				c0.09-0.84-0.52-1.59-1.35-1.68c-0.84-0.09-1.59,0.52-1.68,1.35c-0.09,0.84,0.52,1.59,1.35,1.68c0.02,0,0.04,0,0.06,0
				C25.76,65.76,25.23,65.09,25.31,64.34z"/>
			<path class="st16" d="M24.81,61.94l0.38,0.47c0.1,0.12,0.08,0.3-0.04,0.39l-0.08,0.06c-0.12,0.1-0.3,0.08-0.39-0.04l-0.38-0.47
				c-0.1-0.12-0.08-0.3,0.04-0.39l0.08-0.06C24.53,61.8,24.71,61.82,24.81,61.94z"/>
		</g>
	</g>
	<path class="st11" d="M89.63,50.57l0.07-2.48l-2.64-9.18l-0.9-0.02c-1.48,2.43-2.6,7.56-0.91,11.84l2.73,0.25L89.63,50.57z"/>
	<g>
		<g>
			<path class="st23" d="M68.44,49.39c-0.29,0.12-0.59,0.14-0.54,0.3c0.04,0.16,0.63,0.89,0.77,0.85c0.14-0.04,1.04-0.53,1.07-0.57
				c0.03-0.03-0.52-0.61-0.52-0.61L68.44,49.39z"/>
			<path class="st44" d="M68.65,49.5c0.57-0.16,1.87-0.49,1.94-0.58c0.07-0.1-0.1-0.51-0.33-0.42c-0.23,0.09-2.32,0.74-2.32,0.74
				L68.65,49.5z"/>
			<path class="st45" d="M67.41,49.4c0.05-0.11,0.27-0.34,0.41-0.39c0.14-0.04,0.2,0.37,0.2,0.37L68,49.61L67.41,49.4z"/>
			<path class="st25" d="M72.81,52.35c0.33-0.47,0.56-0.97,0.79-1.49c-0.99-0.43-1.92-1.12-2.17-1.32c-0.25-0.2-0.8-0.36-1.32-0.42
				c-0.52-0.06-1.55-0.16-1.77-0.26c-0.21-0.1-0.74-0.29-0.59,0.11c0.11,0.28,0.37,0.52,0.78,0.6c0.41,0.08,0.86,0.23,0.95,0.3
				c0.1,0.07-0.14,0.19-0.19,0.25c-0.05,0.06-0.55,0.15-0.76,0.03C68.32,50.01,68,49.61,68,49.61l-0.65,0.28c0,0-0.05,0.36,0.07,0.5
				c0.12,0.14,0.33,0.41,0.64,0.77c0.31,0.36,0.95,0.91,1.16,0.9c0.2-0.01,2.19-0.24,2.34-0.21c0.06,0.01,0.59,0.25,1.24,0.53
				C72.79,52.38,72.8,52.36,72.81,52.35z"/>
		</g>
		<g>
			<path class="st25" d="M75.23,39.35c-1.18,0.4-1.32,0.57-1.7,0.89c-0.38,0.32-0.9,0.87-1.77,1.29c-0.87,0.42-1.16,0.81-1.33,1
				c-0.17,0.19-0.56,0.78-0.75,0.57c-0.19-0.21,0.21-0.83,0.39-1.07c0.18-0.24,0.67-0.66,0.67-0.66s-0.84,0.55-1.16,0.74
				c-0.32,0.2-1.31,0.84-1.48,0.78c-0.17-0.06-0.28-0.29-0.17-0.43c0.12-0.14,0.74-0.54,1.18-0.9c0,0-0.41-0.15-0.44-0.34
				c-0.03-0.19,0.03-0.34,0.18-0.57c0,0-0.19-0.32,0.04-0.6c0,0-0.06-0.41,0.13-0.64c0.19-0.23,0.97-0.48,1.12-0.52
				c0.15-0.04,1.28-0.15,1.58-0.2c0.3-0.05,0.75-0.19,0.9-0.29c0.15-0.09,0.35-0.28,0.68-0.4c0.33-0.12,0.99-0.46,0.99-0.46
				L75.23,39.35z"/>
			<path class="st23" d="M68.91,41.46c0.03-0.1,0.2-0.29,0.51-0.39c0.35-0.1,1.08-0.39,1.08-0.39l-1.4,0.87
				C69.1,41.55,69.04,41.55,68.91,41.46z"/>
			<path class="st23" d="M70.24,39.97c0,0-1.14,0.52-1.39,0.68c0,0-0.04-0.08-0.06-0.18C69.12,40.31,70.24,39.97,70.24,39.97z"/>
			<path class="st23" d="M70.16,39.43c0,0-0.45,0.23-0.74,0.36c-0.29,0.13-0.53,0.26-0.53,0.26s-0.01-0.07-0.01-0.17
				C69.27,39.71,70.16,39.43,70.16,39.43z"/>
		</g>
		<path class="st6" d="M85.29,44.82c0,0-0.09,3.48,1.46,5.22c0,0-3.71,1.37-4.62,1.58c-0.91,0.21-1.88,0.56-2.1,0.49
			c-0.21-0.06-5.67-1.36-6.77-1.78c-1.04,0.43-1.23,2.16-1.28,2.24c0.94,0.42,2.44,0.94,2.67,1.04c0.39,0.17,5.06,1.74,5.34,1.81
			c0.51,0.13,5.44-0.84,6.28-1.08c0.84-0.24,6.75-1.49,7.96-2.02c1.22-0.53,2.9-1.93,2.77-7.87L85.29,44.82z"/>
		<path class="st6" d="M81.46,34.25c-0.28,0.07-6.35,2.7-7.95,3.24c-0.04,0.44,0.41,1.97,0.94,2.59c0.13-0.07,0.52-0.3,1.13-0.52
			c0.95-0.34,6.05-2.2,6.26-2.27c0.21-0.08,1.03,0.31,2.12,0.7c0.88,0.31,2.79,1.07,2.79,1.07c-1.63,1.74-1.47,5.75-1.47,5.75
			L97,44.43c-0.27-5.94-2.04-7.22-3.28-7.68c-1.25-0.45-6.8-1.86-7.65-2.03C84.23,34.34,82.59,33.95,81.46,34.25z"/>
		<path class="st44" d="M68.53,49.56c-0.26-0.05-0.45-0.17-0.59-0.32c-0.36,0.11-1.6,0.49-1.73,0.55c-0.16,0.07-0.69,0.33-0.67,0.4
			c0.01,0.06,0.53,0.01,0.86-0.06C66.73,50.07,68.53,49.56,68.53,49.56z"/>
		<polygon class="st16" points="88.01,41.91 85.44,44.81 88.92,47.62 		"/>
		<g>
			<path class="st25" d="M90.12,48.12c-0.42-0.12-2.25-0.61-2.58-2.46c0,0-0.3,0.03-0.47-0.18c-0.17-0.21-0.75-0.42-0.79-0.76
				C86.24,44.38,86.92,44,87,43.83c0.08-0.17,0.31-0.21,0.31-0.21s0.05-2.42,2.61-2.8l0.79,6.82L90.12,48.12z"/>
			<path class="st25" d="M90.47,40.29c-0.12-0.22,0.31-0.12,0.79-0.33c0.48-0.21,1.19-0.24,1.31,0.24
				C92.69,40.68,90.47,40.29,90.47,40.29z"/>
			<path class="st25" d="M90.87,48.56c-0.13,0.09-0.1,0.37,0.42,0.37c0.52,0,1.72,0.5,1.78-0.25
				C93.15,47.93,90.87,48.56,90.87,48.56z"/>
			<path class="st46" d="M90.09,47.24c0.08,0.72-0.36,1.07,0.3,1.31c0.66,0.24,3.18,0.59,4.84-0.81c1.66-1.41,1.81-3.84,1.33-5.13
				c-0.48-1.3-1.13-1.76-1.94-2.06c-0.81-0.3-2.52-0.55-3.75-0.31c-1.05,0.2-1.42,0.42-1.44,0.75c-0.02,0.32-1.18,1.31-0.8,3.58
				C88.92,46.35,90.04,46.84,90.09,47.24z"/>
			<path class="st46" d="M90.36,47.38c-0.01,0-0.03,0.01-0.12,0.06c-0.08,0.05-0.18,0.12-0.26,0.21c-0.18,0.17-0.26,0.43-0.26,0.43
				s0.01-0.27,0.17-0.5c0.07-0.12,0.16-0.22,0.23-0.3c0.06-0.07,0.15-0.13,0.15-0.12L90.36,47.38z"/>
			<path class="st47" d="M95.84,42.49c0.36,1.52-0.34,4.24-1.94,5.27c-1.6,1.03-3.82,0.59-3.83,0.01l0,0
				c-0.06,0.38-0.15,0.61,0.32,0.78c0.66,0.24,3.18,0.59,4.84-0.82c1.66-1.41,1.81-3.84,1.33-5.13c-0.48-1.3-1.13-1.76-1.94-2.06
				c-0.14-0.05-0.31-0.1-0.5-0.14C94.5,40.52,95.48,40.96,95.84,42.49z"/>
			<path class="st46" d="M90.35,47.4c0-0.01-0.08-0.01-0.25-0.08c-0.17-0.06-0.37-0.18-0.6-0.36c-0.45-0.34-0.92-0.98-1.08-1.71
				c-0.18-0.73-0.09-1.48,0.05-2.01c0.06-0.27,0.14-0.48,0.19-0.64c0.05-0.15,0.08-0.24,0.08-0.24s-0.03,0.09-0.07,0.24
				c-0.04,0.15-0.12,0.37-0.17,0.64c-0.11,0.53-0.17,1.28,0.03,1.97c0.18,0.7,0.66,1.28,1.09,1.58c0.21,0.15,0.42,0.26,0.55,0.3
				c0.13,0.05,0.24,0.06,0.23,0.07L90.35,47.4z"/>
		</g>
	</g>
	<path class="st8" d="M80.11,53.27c1.23-0.15,8.84-2.88,8.84-2.88s-2.66-0.98-3.51-5.57c0,0,0.64-4.62,2.89-6.14
		c0,0-5.07-2.22-5.98-2.43c-0.77-0.18-6.55,2.45-8.26,3.24c0.11,0.23,0.24,0.44,0.37,0.59c0.13-0.07,0.52-0.3,1.13-0.52
		c0.95-0.34,6.05-2.2,6.26-2.27c0.21-0.08,1.03,0.31,2.12,0.7c0.88,0.31,2.79,1.07,2.79,1.07c-1.63,1.74-1.47,5.75-1.47,5.75l0,0v0
		c0,0-0.09,3.48,1.46,5.22c0,0-3.71,1.37-4.62,1.58c-0.91,0.21-1.88,0.56-2.1,0.49c-0.21-0.06-5.67-1.36-6.77-1.78
		c-0.27,0.11-0.48,0.31-0.64,0.54C73.69,51.29,79.01,53.4,80.11,53.27z"/>
	<polygon class="st22" points="70.96,43.13 74.21,50.22 82.64,45.08 	"/>
	<g>
		<polygon class="st7" points="79.51,39.05 82.64,45.08 74.42,49.81 70.96,43.13 		"/>
		<polygon class="st0" points="81.93,44.91 74.67,49.1 71.68,43.33 79.25,39.73 		"/>
		<polygon class="st11" points="79.32,39.43 82.5,45.16 82.64,45.08 79.51,39.05 70.96,43.13 71.03,43.27 		"/>
		<polygon class="st1" points="75.12,48.83 72.32,43 71.68,43.33 74.67,49.1 		"/>
		<polygon class="st31" points="72.27,45.66 80.42,46.36 81.45,45.76 72.09,45.31 		"/>
		<polygon class="st31" points="71.74,44.64 82.35,44.54 81.57,43.04 71.63,44.41 		"/>
	</g>
	<g>
		<g>
			<path class="st25" d="M63.99,25.57c0.59,2.3,1.72,4.99,1.72,4.99s-1.73,1.57-2.71,2.71c-0.98,1.14-1.33,1.6-2.17,1.99
				c-0.83,0.39-0.88,0.58-1.74,0.56c-0.86-0.02-1.34-0.19-1.69-0.06c-0.35,0.13-0.55,0.28-0.86,0.36c-0.31,0.08-0.5,0.47-0.7,0.57
				c-0.2,0.1-0.26,0.19-0.2,0.35c0.06,0.16,0.33,0.2,0.33,0.2s-0.01,0.15,0.12,0.28c0.13,0.13,0.31,0.16,0.31,0.16
				s-0.14,0.39,0.33,0.64c0,0,0,0.54,0.52,0.56c0,0-0.07,0.04,0.13,0.3c0.21,0.26,0.82,0.03,1.08-0.06
				c0.26-0.09,0.25-0.01,0.71-0.24c0.46-0.23,0.89-0.34,1.16-0.55c0.26-0.21,0.43-0.56,0.75-0.69c0.32-0.13,4.38-2.61,5.68-3.47
				c1.3-0.86,2.22-1.46,2.45-1.9c0.23-0.44,0.32-0.45,0.12-1.55c-0.19-1.1-1.35-4.33-1.35-4.33L63.99,25.57z"/>
			<path class="st23" d="M56.08,36.93c0.06-0.06,0.54-0.33,0.69-0.42c0.15-0.09,0.65-0.3,0.76-0.3c0.11,0,0.62-0.16,0.62-0.16
				s-0.18,0.04-0.4,0.04c-0.22,0-0.39,0.04-0.71,0.15c-0.32,0.11-0.92,0.5-1.1,0.67c-0.19,0.17-0.3,0.13-0.3,0.13
				c0.06,0.16,0.33,0.2,0.33,0.2C55.96,37.13,56.02,36.98,56.08,36.93z"/>
			<path class="st23" d="M56.29,37.65c0.06,0.02,0.1,0.03,0.1,0.03c0.23-0.07,0.49-0.31,0.56-0.36c0.07-0.05,0.03-0.09,0.02-0.11
				C56.96,37.19,56.4,37.68,56.29,37.65z"/>
			<path class="st23" d="M57.39,38c-0.03-0.05-0.49,0.27-0.74,0.27c0.03,0.02,0.05,0.04,0.08,0.06c0,0,0.25-0.03,0.43-0.13
				C57.35,38.09,57.42,38.04,57.39,38z"/>
			<path class="st23" d="M57.61,38.72c-0.13,0.09-0.36,0.16-0.36,0.16s-0.02,0.01-0.01,0.06c0.21-0.02,0.6-0.2,0.58-0.26
				C57.8,38.63,57.74,38.64,57.61,38.72z"/>
			
				<linearGradient id="SVGID_2_" gradientUnits="userSpaceOnUse" x1="70.9238" y1="29.6406" x2="72.2032" y2="28.9809" gradientTransform="matrix(0.9943 0.107 -0.107 0.9943 -9.5218 0.625)">
				<stop  offset="0" style="stop-color:#DCA67A"/>
				<stop  offset="1" style="stop-color:#EFBB8F"/>
			</linearGradient>
			<path class="st48" d="M57.5,36.29c-0.12,0.04-0.17,0.1-0.1,0.33c0.06,0.23,0.12,0.2,0.15,0.39c0.03,0.19,0.05,0.42,0.21,0.53
				c0.16,0.11,0.17,0.26,0.22,0.46c0.05,0.21,0.22,0.22,0.25,0.36c0.03,0.13,0.14,0.41,0.26,0.52c0.12,0.12,0.55-0.23,0.8-0.49
				c0.25-0.26-0.05-1.68-0.39-1.94C58.57,36.21,57.87,36.15,57.5,36.29z"/>
		</g>
		<g>
			<path class="st25" d="M50.17,26.4c-1.31,1.98-1.14,2.91-1.14,2.91s1.13,2.05,1.68,3.44c0.55,1.4,0.74,1.95,1.4,2.59
				c0.66,0.64,0.65,0.83,1.46,1.1c0.81,0.26,1.33,0.26,1.62,0.49c0.29,0.23,0.43,0.44,0.7,0.62c0.27,0.18,0.32,0.6,0.47,0.77
				c0.15,0.16,0.18,0.27,0.08,0.4c-0.11,0.13-0.38,0.08-0.38,0.08s-0.04,0.14-0.21,0.23c-0.16,0.09-0.34,0.05-0.34,0.05
				s0.01,0.42-0.52,0.5c0,0-0.18,0.52-0.68,0.36c0,0,0.06,0.06-0.23,0.24c-0.28,0.18-0.79-0.24-1-0.41
				c-0.22-0.17-0.23-0.09-0.6-0.46c-0.37-0.36-0.73-0.61-0.92-0.89c-0.18-0.28-0.23-0.67-0.48-0.9c-0.26-0.23-3.29-3.89-4.24-5.13
				c-0.95-1.23-1.63-2.1-1.7-2.6c-0.08-0.49-0.15-0.53,0.39-1.5c0.54-0.98,1.57-2.72,1.57-2.72L50.17,26.4z"/>
			<path class="st23" d="M56.06,38.47c-0.04-0.07-0.41-0.49-0.51-0.62c-0.11-0.14-0.52-0.49-0.62-0.53
				c-0.1-0.04-0.54-0.35-0.54-0.35s0.16,0.09,0.37,0.17c0.21,0.08,0.36,0.17,0.62,0.37c0.27,0.21,0.7,0.77,0.82,0.99
				c0.12,0.22,0.24,0.22,0.24,0.22c-0.11,0.13-0.38,0.08-0.38,0.08C56.11,38.7,56.1,38.54,56.06,38.47z"/>
			<path class="st23" d="M55.62,39.08c-0.06,0-0.11-0.01-0.11-0.01c-0.2-0.14-0.37-0.45-0.41-0.52c-0.05-0.07,0-0.09,0.02-0.11
				C55.14,38.43,55.51,39.08,55.62,39.08z"/>
			<path class="st23" d="M54.47,39.06c0.04-0.04,0.37,0.41,0.61,0.5c-0.03,0.01-0.06,0.02-0.1,0.03c0,0-0.22-0.11-0.37-0.27
				C54.47,39.16,54.43,39.09,54.47,39.06z"/>
			<path class="st23" d="M54.03,39.67c0.09,0.13,0.29,0.27,0.29,0.27s0.01,0.02-0.01,0.06c-0.19-0.09-0.5-0.39-0.47-0.43
				C53.87,39.52,53.93,39.55,54.03,39.67z"/>
			
				<linearGradient id="SVGID_3_" gradientUnits="userSpaceOnUse" x1="-81.4459" y1="19.8473" x2="-80.1659" y2="19.1874" gradientTransform="matrix(-0.975 -0.2223 -0.2223 0.975 -20.8384 1.1631)">
				<stop  offset="0" style="stop-color:#DCA67A"/>
				<stop  offset="1" style="stop-color:#EFBB8F"/>
			</linearGradient>
			<path class="st49" d="M54.92,37.4c0.1,0.08,0.13,0.15-0.01,0.35c-0.14,0.2-0.18,0.15-0.27,0.32c-0.09,0.17-0.18,0.38-0.37,0.44
				c-0.19,0.05-0.25,0.19-0.36,0.36c-0.11,0.18-0.28,0.14-0.35,0.26c-0.07,0.12-0.26,0.34-0.42,0.41c-0.15,0.07-0.45-0.39-0.6-0.72
				c-0.15-0.32,0.59-1.57,1-1.7C53.94,36.98,54.62,37.16,54.92,37.4z"/>
		</g>
		<path class="st7" d="M46.04,31.52c0.14,0.35,3.05-1.29,3.18-1.84c0.03-0.11-0.24-0.35-0.1-0.69c0.59-1.44,2.2-4.31,2.2-4.31
			s1.67,1.39,2.96,1.6c0.84,0.14,1.49,0.25,2.58,0.37c0.58,0.06,1.28,0.13,2.2,0.2c2.67,0.21,4.57-1.6,4.57-1.6l1.95,5.19
			c-0.63,0.91,2.99,2.65,3.64,1.83c0.82-1.03-0.25-5.58-0.92-7.69c-1.08-3.38-1.4-4.5-2.82-5.92c-1.42-1.43-3.03-1.98-4.89-2.44
			c0,0-6.18-0.67-6.98-0.49c-0.8,0.18-4.24,1.45-4.85,3c-0.61,1.54-1.39,3.5-1.64,4.41c-0.25,0.91-1.59,4.36-2.03,5.74
			C44.71,30.06,45.86,31.09,46.04,31.52z"/>
		<g>
			<path class="st25" d="M61.03,19.82c-0.19,0.38-0.99,2.02-2.81,1.99c0,0-0.03,0.29-0.26,0.41c-0.23,0.12-0.54,0.63-0.87,0.61
				c-0.33-0.02-0.56-0.74-0.71-0.85c-0.15-0.11-0.14-0.33-0.14-0.33s-2.29-0.49-2.17-2.99l6.6,0.51L61.03,19.82z"/>
			<path class="st25" d="M53.68,18.03c-0.23,0.08-0.05-0.32-0.17-0.81c-0.11-0.49,0-1.17,0.47-1.19
				C54.46,16.01,53.68,18.03,53.68,18.03z"/>
			<path class="st25" d="M61.58,19.19c0.06,0.14,0.33,0.16,0.43-0.33c0.09-0.5,0.79-1.53,0.1-1.73
				C61.41,16.92,61.58,19.19,61.58,19.19z"/>
			<path class="st50" d="M60.19,19.69c0.7,0.06,0.95,0.54,1.29-0.04c0.35-0.58,1.15-2.9,0.12-4.73c-1.03-1.83-3.3-2.43-4.61-2.21
				c-1.32,0.22-1.87,0.74-2.31,1.45c-0.44,0.71-0.91,2.47-0.99,3.49c-0.07,1.03,0.18,1.94,0.48,2.02c0.3,0.08,0.81-0.47,1.22-0.4
				c0.41,0.06,0.68,1.15,1.98,1.3C59.12,20.78,59.8,19.65,60.19,19.69z"/>
			<path class="st51" d="M56.76,13.37c1.51-0.05,3.95,1.11,4.62,2.81c0.68,1.71-0.15,3.72-0.7,3.62v0c0.35,0.13,0.55,0.26,0.8-0.16
				c0.35-0.58,1.15-2.9,0.12-4.73c-1.03-1.83-3.3-2.43-4.61-2.21c-1.32,0.22-1.87,0.74-2.31,1.45c-0.07,0.12-0.15,0.27-0.22,0.44
				C54.64,14.26,55.24,13.42,56.76,13.37z"/>
		</g>
		<path class="st52" d="M65.55,30.22c-0.24-0.06-0.6,0.58-0.93,1.12c-0.31,0.52,3.26,2.29,3.65,2.05c0.4-0.24,1.1-0.74,1.07-1.11
			c-0.03-0.37-0.2-0.45-0.2-0.45L65.55,30.22z"/>
		<path class="st11" d="M65.16,26.85c-0.56-1.38-1.49-3.54-1.49-3.54s-2.88,2.98-6.3,2.6c-3.41-0.37-6.2-3.5-6.2-3.5
			s-3.25,5.89-3.04,7.06l0.97-0.2c-0.01-0.09-0.02-0.18,0.03-0.29c0.59-1.44,2.2-4.31,2.2-4.31s1.67,1.39,2.96,1.6
			c0.84,0.14,1.49,0.25,2.58,0.37c0.58,0.06,1.28,0.13,2.2,0.2c2.67,0.21,4.57-1.6,4.57-1.6l1.89,5.01
			c0.21,0.06,0.57,0.19,1.24,0.49C66.76,30.76,65.71,28.23,65.16,26.85z"/>
		<path class="st52" d="M49.09,29.16c0.24-0.13,0.62,0.92,0.6,1.14c-0.02,0.22-2.99,2.09-3.19,1.96c-0.2-0.13-1.18-1.25-1.08-1.49
			c0.09-0.24,1.59-0.88,2.05-1.06C47.92,29.54,49.09,29.16,49.09,29.16z"/>
		<path class="st7" d="M64.62,31.34c-0.09,0.15,0.15,0.41,0.55,0.69c0.08-0.32,0.88-1.41,1.59-1.27l0,0l-1.21-0.54
			C65.31,30.16,64.95,30.79,64.62,31.34z"/>
		<path class="st7" d="M49.69,30.3c0.02-0.22-0.36-1.27-0.6-1.14c0,0-0.49,0.16-0.96,0.31c0.11,0.45,0.88,1.08,1.08,1.24
			C49.49,30.52,49.68,30.36,49.69,30.3z"/>
	</g>
	<path class="st0" d="M63.01,42.53c0,0,1,1.05,0.91,4.01l2.6-0.94c0,0-1.13-2.99-2.98-3.47l0.93-0.66l-2.58-0.14l0.58,1.98
		L63.01,42.53z"/>
	<g>
		<path class="st0" d="M35.57,50.06c0,0,0,0.09,0,0.25c0,0.15,0.02,0.35,0.05,0.6c0.06,0.5,0.22,1.17,0.57,1.74
			c0.09,0.14,0.18,0.28,0.29,0.41c0.1,0.13,0.22,0.24,0.34,0.35c0.24,0.21,0.5,0.37,0.73,0.48c0.24,0.1,0.44,0.19,0.59,0.22
			c0.15,0.04,0.23,0.07,0.23,0.07l-0.02,0.14c0,0-0.09-0.02-0.25-0.04c-0.16-0.02-0.38-0.08-0.65-0.16
			c-0.26-0.1-0.56-0.23-0.85-0.43c-0.15-0.1-0.29-0.21-0.42-0.34c-0.14-0.12-0.26-0.27-0.38-0.42c-0.47-0.6-0.74-1.33-0.88-1.88
			c-0.07-0.27-0.11-0.52-0.13-0.68c-0.02-0.16-0.03-0.24-0.03-0.24L35.57,50.06z"/>
		<g>
			<polygon class="st0" points="38.07,55.01 39.54,54.32 38.21,53.39 			"/>
		</g>
	</g>
	<g>
		<path class="st0" d="M44.18,44.14c0,0,0.02-0.05,0.06-0.15c0.04-0.1,0.11-0.25,0.21-0.41c0.19-0.33,0.49-0.74,0.9-1.03
			c0.21-0.14,0.43-0.26,0.66-0.32c0.22-0.07,0.44-0.09,0.62-0.1c0.18,0,0.33,0.01,0.44,0.03c0.1,0.01,0.16,0.02,0.16,0.02
			l-0.01,0.09c0,0-0.06,0-0.16,0c-0.1-0.01-0.24,0.01-0.41,0.03c-0.17,0.03-0.36,0.08-0.55,0.17c-0.19,0.08-0.37,0.21-0.53,0.36
			c-0.32,0.3-0.53,0.69-0.65,0.99c-0.06,0.16-0.1,0.28-0.13,0.37c-0.03,0.1-0.04,0.16-0.04,0.16L44.18,44.14z"/>
		<g>
			<polygon class="st0" points="47,42.65 47.86,42.36 47.18,41.75 			"/>
		</g>
	</g>
	<g>
		<path class="st0" d="M57.57,56.88c0,0-0.13,0.07-0.36,0.19c-0.24,0.12-0.59,0.29-1.02,0.46c-0.43,0.16-0.94,0.32-1.51,0.43
			c-0.29,0.04-0.58,0.1-0.88,0.1c-0.3,0.03-0.61,0-0.92-0.01c-0.3-0.05-0.61-0.08-0.9-0.17c-0.29-0.07-0.56-0.19-0.83-0.3
			c-0.26-0.12-0.5-0.26-0.71-0.4c-0.21-0.16-0.41-0.29-0.58-0.44c-0.33-0.3-0.6-0.56-0.76-0.77c-0.17-0.2-0.26-0.31-0.26-0.31
			l0.07-0.06c0,0,0.1,0.1,0.28,0.29c0.17,0.19,0.45,0.43,0.79,0.69c0.17,0.13,0.38,0.24,0.59,0.38c0.22,0.11,0.45,0.23,0.7,0.32
			c0.26,0.08,0.51,0.18,0.79,0.22c0.27,0.07,0.56,0.07,0.84,0.1c0.28-0.01,0.57-0.01,0.84-0.05c0.28-0.02,0.54-0.1,0.8-0.15
			c0.51-0.14,0.98-0.32,1.36-0.5c0.39-0.19,0.69-0.36,0.9-0.49c0.22-0.14,0.34-0.22,0.34-0.22L57.57,56.88z"/>
		<g>
			<polygon class="st0" points="49.69,55.31 48.2,54.67 48.39,56.28 			"/>
		</g>
	</g>
	<g>
		<path class="st21" d="M37.97,35.78l-2.64,4.49c-0.05,0.09-0.16,0.11-0.25,0.06l-6.23-3.66c-0.09-0.05-0.11-0.16-0.06-0.25
			l2.64-4.49c0.05-0.09,0.16-0.11,0.25-0.06l6.23,3.66C37.99,35.58,38.02,35.69,37.97,35.78z"/>
		
			<rect x="32.54" y="33.64" transform="matrix(0.5061 -0.8625 0.8625 0.5061 -16.1807 46.6069)" class="st37" width="0.13" height="7.58"/>
	</g>
</g>
</svg>
